<?xml version="1.0" standalone="no"?>
<!DOCTYPE svg PUBLIC "-//W3C//DTD SVG 1.1//EN" "http://www.w3.org/Graphics/SVG/1.1/DTD/svg11.dtd" >
<svg xmlns="http://www.w3.org/2000/svg">
<metadata>
This is a custom SVG webfont generated by Font Squirrel.
Copyright   : 251 Dutch Design AlbertJan Pool 1995 Published by FontShop International FontFont release 15
</metadata>
<defs>
<font id="webfontnOudLcQI" horiz-adv-x="1112" >
<font-face units-per-em="2048" ascent="1638" descent="-410" />
<missing-glyph horiz-adv-x="475" />
<glyph unicode=" "  horiz-adv-x="475" />
<glyph unicode="&#x09;" horiz-adv-x="475" />
<glyph unicode="&#xa0;" horiz-adv-x="475" />
<glyph unicode="!" horiz-adv-x="710" d="M494 457h-201l-64 1001h328zM252 0v272h283v-272h-283z" />
<glyph unicode="&#x22;" horiz-adv-x="950" d="M561 1026v432h248v-432h-248zM139 1026v432h250v-432h-250z" />
<glyph unicode="#" horiz-adv-x="1415" d="M1135 860l-33 -221h141v-250h-182l-62 -389h-280l63 389h-237l-62 -389h-280l61 389h-141v250h182l33 221h-143v248h182l57 362h281l-58 -362h238l57 362h279l-55 -362h141v-248h-182zM618 860l-34 -221h237l33 221h-236z" />
<glyph unicode="$" horiz-adv-x="1267" d="M729 -4v-229h-207v221q-150 0 -267.5 46t-215.5 146l184 185q63 -63 144.5 -93t181.5 -30v370l-66 9q-94 12 -163.5 42.5t-146.5 107.5t-77 257q0 178 114 298t312 140v185h207v-183q121 0 219.5 -42t184.5 -126l-181 -178q-49 47 -116.5 73t-135.5 26v-357l78 -12 q98 -14 164 -42t119 -78t80.5 -126t27.5 -176q0 -182 -120.5 -295.5t-319.5 -138.5zM549 1219q-86 -12 -132 -61.5t-46 -119.5q0 -33 9 -57.5t45 -58t124 -45.5v342zM846 545q-25 25 -60.5 35t-85.5 18v-352q190 23 191 176q0 80 -45 123z" />
<glyph unicode="%" horiz-adv-x="1736" d="M1333 -12q-129 0 -213 72.5t-84 207.5v203q0 131 85 206t212 75q129 0 213 -73t84 -208v-203q0 -133 -85 -206.5t-212 -73.5zM629 0h-209l690 1458h209zM403 707q-129 0 -213 72.5t-84 207.5v203q0 131 85 205.5t212 74.5q129 0 213 -72.5t84 -207.5v-203 q0 -133 -85 -206.5t-212 -73.5zM1438 463q0 117 -105 117q-104 0 -104 -117v-187q0 -117 104 -116q104 0 105 116v187zM508 1182q0 117 -105 116q-104 0 -104 -116v-187q0 -117 104 -116q104 0 105 116v187z" />
<glyph unicode="&#x26;" horiz-adv-x="1476" d="M1087 0l-106 127q-102 -80 -186 -109.5t-191 -29.5q-238 0 -359.5 115.5t-121.5 326.5q0 127 71.5 219t190.5 172q-63 72 -104 144.5t-41 164.5q0 152 104.5 246t284.5 94q170 0 271 -95t101 -249q0 -78 -38.5 -139t-110.5 -115l-104 -75l245 -291q74 100 74 256h252 q0 -279 -156 -453l262 -309h-338zM629 1243q-59 0 -90 -32.5t-31 -86.5q0 -37 22.5 -70.5t73.5 -92.5l62 40q41 29 62.5 57.5t21.5 65.5q0 51 -32 85t-89 34zM528 657q-76 -53 -111.5 -101t-35.5 -122q0 -90 63.5 -147.5t157.5 -57.5q119 0 217 86z" />
<glyph unicode="'" horiz-adv-x="530" d="M139 1026v432h252v-432h-252z" />
<glyph unicode="(" horiz-adv-x="688" d="M397 -193q-80 80 -113.5 117t-65.5 91.5t-43 124t-11 143.5v893q0 115 11 162.5t43 102t64.5 91.5t114.5 119l178 -178q-47 -47 -69.5 -73t-49 -73t-26.5 -164v-868q0 -117 26.5 -164t48 -71.5t70.5 -73.5z" />
<glyph unicode=")" horiz-adv-x="688" d="M471 18q-33 -55 -65.5 -92t-114.5 -119l-180 181q43 43 68.5 71.5t51 73.5t25.5 162v868q0 117 -27.5 166t-60.5 83l-57 58l180 181q80 -80 113.5 -117t65.5 -91t43 -124t11 -143v-893q0 -115 -11 -163.5t-42 -101.5z" />
<glyph unicode="*" horiz-adv-x="1011" d="M807 780l-215 135l8 -256h-188l10 256l-217 -135l-92 162l225 119l-225 119l92 163l217 -137l-10 256h188l-8 -256l215 137l94 -163l-227 -119l227 -119z" />
<glyph unicode="+" d="M682 442v-327h-250v327h-330v250h330v328h250v-328h328v-250h-328z" />
<glyph unicode="," horiz-adv-x="571" d="M139 -338v629h293v-404z" />
<glyph unicode="-" horiz-adv-x="872" d="M121 461v248h631v-248h-631z" />
<glyph unicode="." horiz-adv-x="583" d="M139 0v303h305v-303h-305z" />
<glyph unicode="/" horiz-adv-x="825" d="M250 -152h-250l584 1762h250z" />
<glyph unicode="0" d="M557 -12q-186 0 -315 116.5t-129 317.5v614q0 201 129 317.5t315 116.5t314 -116.5t128 -317.5v-614q0 -203 -127 -318.5t-315 -115.5zM733 1032q0 90 -48 144.5t-128 54.5t-129 -53.5t-49 -145.5v-608q0 -90 49 -143.5t129 -53.5t128 52.5t48 144.5v608z" />
<glyph unicode="1" d="M508 0v1171l-297 -258v287l297 258h266v-1458h-266z" />
<glyph unicode="2" d="M121 0v240l545 632q41 49 58 88t17 89q0 82 -46 132t-130 50q-78 0 -128 -43t-50 -144h-266q0 197 125 311.5t319 114.5q197 0 320 -114.5t123 -308.5q0 -100 -34 -166t-122 -168l-408 -473h564v-240h-887z" />
<glyph unicode="3" d="M551 -12q-197 0 -331 107.5t-134 322.5h266q0 -92 57.5 -141.5t141.5 -49.5q88 0 142.5 52.5t54.5 150.5q0 92 -54.5 146.5t-150.5 54.5h-39v231h39q92 0 138 50.5t46 131.5q0 88 -51 137.5t-127 49.5q-78 0 -129 -47t-51 -129h-267q0 188 128 301.5t319 113.5 q195 0 319.5 -116.5t124.5 -300.5q0 -113 -45 -185.5t-123 -113.5q88 -47 138.5 -127t50.5 -205q0 -207 -132 -320.5t-331 -113.5z" />
<glyph unicode="4" d="M915 207v-207h-256v207h-596v252l500 999h291l-500 -999h305v272h256v-272h134v-252h-134z" />
<glyph unicode="5" d="M883 106q-55 -55 -134 -86.5t-188 -31.5q-106 0 -190 32.5t-140.5 89t-85 135.5t-28.5 163h266q12 -90 53 -135.5t125 -45.5q80 0 119 39t52 95.5t13 130.5q0 133 -40.5 197.5t-137.5 64.5q-74 0 -116.5 -34t-59.5 -85h-244v823h832v-239h-590v-314q33 31 90.5 52.5 t128.5 21.5q88 0 157 -25.5t131 -88t89 -157t27 -216.5q0 -131 -26.5 -220.5t-102.5 -165.5z" />
<glyph unicode="6" d="M553 -12q-199 0 -327 119.5t-128 330.5q0 72 21.5 150t101.5 239l307 631h291l-303 -602q25 10 53.5 14t55.5 4q154 0 268.5 -118.5t114.5 -313.5q0 -211 -128 -332.5t-327 -121.5zM553 653q-84 0 -136 -56t-52 -157q0 -100 52 -156.5t136 -56.5t136 56.5t52 156.5 q0 98 -51 155.5t-137 57.5z" />
<glyph unicode="7" d="M557 0h-289l473 1219h-385v-230h-254v469h928v-239z" />
<glyph unicode="8" d="M557 -12q-203 0 -335 114.5t-132 321.5q0 119 52.5 197.5t129.5 130.5q-68 47 -115.5 121.5t-47.5 181.5q0 188 129 301.5t319 113.5t318.5 -112.5t128.5 -302.5q0 -106 -47.5 -180t-116.5 -123q76 -51 130 -130t54 -198q0 -205 -132 -320.5t-335 -115.5zM557 1231 q-78 0 -130 -52.5t-52 -131.5q0 -80 52 -132.5t130 -52.5q80 0 130 52.5t50 132.5q0 78 -51 131t-129 53zM557 631q-84 0 -142.5 -58.5t-58.5 -144.5t57.5 -143.5t143.5 -57.5t143.5 57.5t57.5 143.5q0 84 -57.5 143.5t-143.5 59.5z" />
<glyph unicode="9" d="M893 631l-309 -631h-289l303 602q-25 -10 -53.5 -14t-55.5 -4q-156 0 -270.5 118.5t-114.5 313.5q0 211 128 332.5t327 121.5t327 -119.5t128 -330.5q0 -70 -22.5 -151.5t-98.5 -237.5zM559 1231q-84 0 -136 -56.5t-52 -156.5q0 -98 51 -155.5t137 -57.5q84 0 136.5 56.5 t52.5 156.5t-52.5 156.5t-136.5 56.5z" />
<glyph unicode=":" horiz-adv-x="632" d="M190 555v303h304v-303h-304zM190 0v303h304v-303h-304z" />
<glyph unicode=";" horiz-adv-x="632" d="M190 555v303h304v-303h-304zM197 -338v629h290v-404z" />
<glyph unicode="&#x3c;" horiz-adv-x="2103" d="M559 459l668 -664h-336l-789 789l789 788h336l-668 -661h1440v-252h-1440z" />
<glyph unicode="=" d="M102 682v250h908v-250h-908zM102 238v249h908v-249h-908z" />
<glyph unicode="&#x3e;" horiz-adv-x="2103" d="M1212 -205h-335l667 664h-1442v252h1442l-667 661h335l789 -788z" />
<glyph unicode="?" horiz-adv-x="1071" d="M897 805l-152 -201q-37 -47 -36 -104v-43h-267v61q0 63 17.5 110.5t60.5 102.5l152 195q25 31 42 68.5t17 68.5q0 76 -44 122t-122 46t-121 -47t-43 -123h-266q0 186 123 297.5t307 111.5q182 0 307 -110.5t125 -298.5q0 -70 -25.5 -131.5t-74.5 -124.5zM434 0v272h283 v-272h-283z" />
<glyph unicode="@" horiz-adv-x="1552" d="M1186 0v94q-51 -55 -107.5 -80.5t-138.5 -25.5q-162 0 -239.5 83t-96 165.5t-18.5 236.5q0 147 18.5 231t94 168t239.5 84q150 0 242 -100v92q0 70 -15.5 119t-55.5 89t-90 56.5t-116 16.5h-254q-66 0 -115 -15.5t-90 -56.5t-56 -90t-15 -119v-592q0 -76 18.5 -115.5 t71.5 -86.5l-184 -185q-92 82 -127 160t-35 213v612q0 133 28.5 225.5t98 162t160 97t225.5 27.5h295q133 0 223 -26.5t160.5 -97t98.5 -163t28 -225.5v-960zM1010 735q-94 0 -131 -65.5t-37 -196.5q0 -129 36.5 -196.5t131.5 -67.5q92 0 131 67.5t39 196.5q0 131 -37 196.5 t-133 65.5z" />
<glyph unicode="A" horiz-adv-x="1306" d="M999 0l-86 258h-518l-88 -258h-297l531 1458h223l532 -1458h-297zM659 1028l-184 -530h363z" />
<glyph unicode="B" horiz-adv-x="1347" d="M780 0h-610v1458h586q211 0 330.5 -109.5t119.5 -299.5q0 -111 -55 -190t-125 -111q84 -39 142.5 -117t58.5 -211q0 -199 -123 -309.5t-324 -110.5zM733 1204h-278v-336h278q90 0 139.5 45t49.5 123q0 76 -50.5 122t-138.5 46zM752 612h-297v-358h297q92 0 141 51t49 129 t-48 128t-142 50z" />
<glyph unicode="C" horiz-adv-x="1269" d="M657 -12q-117 0 -216 41t-188 130t-110.5 208.5t-21.5 361.5q0 240 22.5 361.5t111.5 211t185.5 129t216.5 39.5q211 0 355.5 -118.5t181.5 -341.5h-289q-23 94 -83 150.5t-163 56.5q-117 0 -170 -60.5t-68 -144.5t-15 -283q0 -207 14 -284.5t68.5 -140t170.5 -62.5 q102 0 163 56t83 151h289q-37 -221 -182.5 -341t-354.5 -120z" />
<glyph unicode="D" horiz-adv-x="1349" d="M1081 139q-68 -68 -169 -103.5t-216 -35.5h-526v1458h526q117 0 215.5 -33.5t182.5 -117.5t109.5 -195t25.5 -285v-92v-92q0 -178 -26 -293t-122 -211zM883 1114q-37 45 -88.5 67.5t-124.5 22.5h-215v-950h215q139 0 195.5 68.5t67.5 149.5t11 263q0 176 -11 253t-50 126 z" />
<glyph unicode="E" horiz-adv-x="1239" d="M170 0v1458h960v-254h-675v-342h575v-254h-575v-354h675v-254h-960z" />
<glyph unicode="F" horiz-adv-x="1208" d="M455 1204v-358h575v-254h-575v-592h-285v1458h960v-254h-675z" />
<glyph unicode="G" horiz-adv-x="1327" d="M1069 154q-84 -86 -188.5 -126t-223.5 -40q-117 0 -216 41t-188 130t-110.5 208.5t-21.5 361.5q0 240 22.5 361.5t111.5 211t184.5 129t217.5 39.5q240 0 378.5 -133t170.5 -333h-286q-51 213 -263 213q-115 0 -170 -62.5t-68 -139.5t-13 -286q0 -215 12 -288.5 t67.5 -136t171.5 -62.5q127 0 181.5 59t71 110.5t16.5 106.5v55h-269v238h551v-213q0 -160 -31.5 -262t-107.5 -182z" />
<glyph unicode="H" horiz-adv-x="1402" d="M948 0v610h-493v-610h-285v1458h285v-596h493v596h285v-1458h-285z" />
<glyph unicode="I" horiz-adv-x="624" d="M170 0v1458h285v-1458h-285z" />
<glyph unicode="J" horiz-adv-x="1046" d="M381 -12q-121 0 -207 33.5t-168 115.5l189 187q45 -45 80.5 -63.5t105.5 -18.5q229 0 229 250v966h285v-979q0 -229 -149.5 -360t-364.5 -131z" />
<glyph unicode="K" horiz-adv-x="1361" d="M1018 0l-375 664l-188 -226v-438h-285v1458h285v-635l514 635h346l-484 -579l519 -879h-332z" />
<glyph unicode="L" horiz-adv-x="1177" d="M170 0v1458h285v-1204h661v-254h-946z" />
<glyph unicode="M" horiz-adv-x="1660" d="M1206 0v850l-278 -553h-193l-280 553v-850h-285v1458h281l380 -788l379 788h281v-1458h-285z" />
<glyph unicode="N" horiz-adv-x="1456" d="M1032 0l-577 895v-895h-285v1458h254l577 -893v893h285v-1458h-254z" />
<glyph unicode="O" horiz-adv-x="1318" d="M1053 147q-80 -80 -174.5 -119.5t-219.5 -39.5q-123 0 -219 40t-186 130t-111.5 209.5t-21.5 361.5q0 240 22.5 361.5t111.5 211t184.5 129t219.5 39.5q121 0 217.5 -39.5t185.5 -129t112.5 -213t23.5 -359.5q0 -242 -22.5 -362t-122.5 -220zM842 1139q-68 78 -183 78 q-59 0 -105 -20.5t-84 -62.5t-51 -119t-13 -286q0 -215 12 -287.5t68.5 -136t172.5 -63.5q115 0 169.5 62.5t69.5 144t15 280.5q0 209 -14 285t-57 125z" />
<glyph unicode="P" horiz-adv-x="1286" d="M735 549h-280v-549h-285v1458h565q221 0 351.5 -130t130.5 -324q0 -193 -131.5 -324t-350.5 -131zM721 1204h-266v-399h266q96 0 153.5 53t57.5 146q0 90 -57.5 145t-153.5 55z" />
<glyph unicode="Q" horiz-adv-x="1316" d="M1083 -61l-129 129q-123 -80 -295 -80q-123 0 -219 40t-186 130t-111.5 209.5t-21.5 361.5q0 240 22.5 361.5t111.5 211t184.5 129t219.5 39.5q121 0 217.5 -39.5t185.5 -129t112.5 -213t23.5 -359.5q0 -256 -20.5 -350t-69.5 -166l125 -125zM842 1139q-68 78 -183 78 q-59 0 -105 -20.5t-84 -62.5t-51 -119t-13 -286q0 -215 12 -287.5t68.5 -136t172.5 -63.5q55 0 95 26l-127 125l151 150l109 -109q14 41 20 117t6 178q0 209 -14 285t-57 125z" />
<glyph unicode="R" horiz-adv-x="1339" d="M944 0l-285 582h-204v-582h-285v1458h571q217 0 345 -128t128 -318q0 -143 -75.5 -242.5t-190.5 -140.5l326 -629h-330zM723 1204h-268v-385h268q92 0 149.5 53.5t57.5 139.5q0 88 -56.5 140t-150.5 52z" />
<glyph unicode="S" horiz-adv-x="1210" d="M571 -12q-174 0 -301 43t-231 149l184 185q66 -66 155 -94.5t197 -28.5q258 0 259 180q0 80 -33 110.5t-63.5 44t-78.5 19.5l-176 25q-186 27 -286.5 126t-100.5 281q0 199 136.5 320.5t371.5 121.5q154 0 265.5 -38.5t205.5 -131.5l-180 -178q-61 57 -138 79t-161 22 q-111 0 -168 -51.5t-57 -133.5q0 -33 9 -57.5t46 -58t123 -45.5l172 -25q184 -27 261 -97.5t103.5 -147.5t26.5 -177q0 -207 -151.5 -324.5t-389.5 -117.5z" />
<glyph unicode="T" horiz-adv-x="1169" d="M727 1204v-1204h-285v1204h-381v254h1047v-254h-381z" />
<glyph unicode="U" horiz-adv-x="1368" d="M684 -12q-229 0 -383 141t-154 371v958h285v-948q0 -125 67.5 -196.5t184.5 -71.5t185.5 70.5t68.5 197.5v948h283v-958q0 -229 -153 -370.5t-384 -141.5z" />
<glyph unicode="V" horiz-adv-x="1189" d="M700 0h-213l-481 1458h295l293 -950l293 950h297z" />
<glyph unicode="W" horiz-adv-x="1816" d="M1413 0h-237l-269 885l-268 -885h-238l-389 1458h297l226 -919l266 919h213l266 -919l227 919h297z" />
<glyph unicode="X" horiz-adv-x="1234" d="M899 0l-283 508l-280 -508h-326l453 748l-424 710h323l254 -471l256 471h322l-424 -710l455 -748h-326z" />
<glyph unicode="Y" horiz-adv-x="1171" d="M727 598v-598h-283v598l-438 860h309l273 -588l268 588h309z" />
<glyph unicode="Z" horiz-adv-x="1122" d="M82 0v229l623 975h-596v254h931v-225l-624 -979h624v-254h-958z" />
<glyph unicode="[" horiz-adv-x="774" d="M164 -152v1762h526v-240h-260v-1282h260v-240h-526z" />
<glyph unicode="\" horiz-adv-x="825" d="M575 -152l-575 1735h250l575 -1735h-250z" />
<glyph unicode="]" horiz-adv-x="774" d="M86 -152v238h260v1286h-260v238h526v-1762h-526z" />
<glyph unicode="^" horiz-adv-x="1232" d="M825 797l-209 385l-208 -385h-279l365 676h245l365 -676h-279z" />
<glyph unicode="_" horiz-adv-x="1232" d="M0 -365v179h1233v-179h-1233z" />
<glyph unicode="`" horiz-adv-x="1024" d="M446 1237l-233 348h281l131 -348h-179z" />
<glyph unicode="a" horiz-adv-x="1093" d="M696 0v92q-55 -55 -112.5 -78.5t-149.5 -23.5q-178 0 -269 93t-91 241q0 137 92 223t272 86h252v53q0 88 -46 128t-152 40q-78 0 -119 -18.5t-86 -69.5l-170 166q78 84 161.5 115.5t223.5 31.5q455 0 454 -377v-702h-260zM690 451h-211q-150 0 -149 -121q0 -123 153 -123 q63 0 98 9t72 44t37 133v58z" />
<glyph unicode="b" horiz-adv-x="1146" d="M934 84q-96 -96 -260 -96q-88 0 -149.5 25.5t-116.5 86.5v-100h-258v1458h266v-485q51 57 112.5 81.5t145.5 24.5q164 0 238.5 -74.5t102 -171t27.5 -298.5q0 -160 -18 -269.5t-90 -181.5zM596 840q-111 0 -145.5 -76t-34.5 -229q0 -156 33.5 -232t146.5 -76 q109 0 144.5 78t35.5 230q0 154 -34.5 229.5t-145.5 75.5z" />
<glyph unicode="c" horiz-adv-x="983" d="M573 -12q-193 0 -335 126t-142 421t141.5 419.5t335.5 124.5q215 0 353 -143l-181 -180q-41 45 -80.5 64.5t-91.5 19.5q-94 0 -152.5 -72t-58.5 -233q0 -164 58.5 -236t152.5 -72t172 84l181 -178q-140 -145 -353 -145z" />
<glyph unicode="d" horiz-adv-x="1148" d="M739 0v100q-102 -113 -264 -112q-166 0 -240.5 74.5t-102.5 172t-28 300.5q0 162 18.5 269t102.5 191t248 84q86 0 146.5 -23.5t113.5 -82.5v485h266v-1458h-260zM551 840q-111 0 -145.5 -76t-34.5 -229q0 -156 33.5 -232t146.5 -76q111 0 146.5 77t35.5 231 q0 152 -35.5 228.5t-146.5 76.5z" />
<glyph unicode="e" horiz-adv-x="1122" d="M358 451q0 -106 61.5 -172t172.5 -66q82 0 134 22.5t108 77.5l161 -157q-88 -88 -177 -128t-228 -40q-219 0 -356.5 122.5t-137.5 424.5q0 256 127 400t338 144q217 0 341 -142t124 -368v-118h-668zM739 748q-23 51 -67.5 80.5t-110.5 29.5t-110.5 -29.5t-68.5 -85 t-24 -110.5h406q0 56 -25 115z" />
<glyph unicode="f" horiz-adv-x="700" d="M449 834v-834h-267v834h-110v202h110v133q0 125 79 215.5t233 90.5h151v-226h-104q-92 0 -92 -96v-117h196v-202h-196z" />
<glyph unicode="g" horiz-adv-x="1136" d="M518 -403q-129 0 -217 29.5t-170 109.5l166 168q84 -82 209 -82q111 0 163 63.5t52 157.5v109q-51 -57 -111.5 -82t-142.5 -25q-160 0 -242 82t-101.5 175t-19.5 261q0 164 19.5 258t101.5 176t244 82q86 0 145.5 -25.5t114.5 -86.5v100h258v-1028q0 -195 -128 -318.5 t-341 -123.5zM545 840q-106 0 -140 -73t-34 -204q0 -170 44 -224t130 -54q106 0 141 73.5t35 204.5q0 129 -35 203t-141 74z" />
<glyph unicode="h" horiz-adv-x="1165" d="M762 0v651q0 98 -51.5 143.5t-122.5 45.5q-72 0 -122 -45t-50 -144v-651h-266v1458h266v-489q109 111 256 110q172 0 264 -106.5t92 -282.5v-690h-266z" />
<glyph unicode="i" horiz-adv-x="563" d="M145 1249v217h273v-217h-273zM150 0v1067h266v-1067h-266z" />
<glyph unicode="j" horiz-adv-x="563" d="M145 1249v217h273v-217h-273zM104 -399h-151v225h102q94 0 95 96v1145h266v-1161q0 -127 -78 -216t-234 -89z" />
<glyph unicode="k" horiz-adv-x="1144" d="M791 0l-263 444l-112 -127v-317h-266v1458h266v-827l354 436h322l-381 -430l409 -637h-329z" />
<glyph unicode="l" horiz-adv-x="665" d="M451 0q-154 0 -233 89t-79 216v1153h267v-1136q0 -96 94 -97h102v-225h-151z" />
<glyph unicode="m" horiz-adv-x="1794" d="M1391 0v645q0 100 -51.5 147.5t-125.5 47.5q-72 0 -125 -46t-53 -143v-651h-266v645q0 100 -51 147.5t-125 47.5q-76 0 -127 -46t-51 -149v-645h-266v1067h260v-98q51 53 120.5 81.5t145.5 28.5q184 0 282 -135q129 135 320 135q80 0 148.5 -24.5t122 -77.5t81 -128 t27.5 -167v-682h-266z" />
<glyph unicode="n" horiz-adv-x="1173" d="M770 0v645q0 100 -51 147.5t-125 47.5q-76 0 -127 -46t-51 -149v-645h-266v1067h260v-98q104 111 266 110q78 0 142.5 -24.5t116.5 -76.5t76.5 -127t24.5 -169v-682h-266z" />
<glyph unicode="o" d="M887 119q-55 -59 -137 -95t-195 -36q-111 0 -192.5 35.5t-144 101t-88.5 161t-26 249.5q0 158 25 247.5t88.5 157.5t144 103.5t193.5 35.5q111 0 193.5 -35.5t145 -101t88.5 -161t26 -246.5q0 -160 -24.5 -250t-96.5 -166zM680 793q-47 47 -125 47q-76 0 -118 -42 t-54 -104.5t-12 -158.5q0 -129 14 -178.5t54 -89.5t116 -40q78 0 120 42t54 104.5t12 161.5q0 104 -10 160.5t-51 97.5z" />
<glyph unicode="p" horiz-adv-x="1146" d="M934 84q-96 -96 -260 -96q-86 0 -145.5 23.5t-112.5 82.5v-485h-266v1458h258v-100q102 113 266 112q164 0 238.5 -74.5t102 -171t27.5 -298.5q0 -160 -18 -269.5t-90 -181.5zM596 840q-111 0 -145.5 -76t-34.5 -229q0 -156 33.5 -232t146.5 -76q109 0 144.5 78t35.5 230 q0 154 -34.5 229.5t-145.5 75.5z" />
<glyph unicode="q" horiz-adv-x="1148" d="M733 -391v485q-51 -55 -113.5 -80.5t-146.5 -25.5q-164 0 -238.5 74.5t-102.5 172t-28 300.5q0 162 18.5 269t102.5 191t250 84q86 0 147.5 -25.5t116.5 -86.5v100h260v-1458h-266zM551 840q-111 0 -145.5 -76t-34.5 -229q0 -156 33.5 -232t146.5 -76q111 0 146.5 77 t35.5 231q0 152 -35.5 228.5t-146.5 76.5z" />
<glyph unicode="r" horiz-adv-x="931" d="M729 776q-33 33 -63.5 48.5t-77.5 15.5q-70 0 -121 -50.5t-51 -146.5v-643h-266v1067h260v-102q39 47 112.5 80.5t155.5 33.5q80 0 138 -22.5t114 -77.5z" />
<glyph unicode="s" horiz-adv-x="1026" d="M500 -12q-154 0 -257.5 29.5t-197.5 123.5l174 174q57 -57 133 -78.5t152 -21.5q78 0 133 26.5t55 84.5q0 41 -25.5 66.5t-86.5 31.5l-168 16q-152 14 -232 85t-80 214q0 160 120 250t292 90q139 0 235.5 -26.5t172.5 -98.5l-164 -166q-41 37 -108.5 54.5t-139.5 17.5 q-74 0 -113 -29.5t-39 -72.5q0 -37 22.5 -61.5t88.5 -30.5l168 -17q156 -14 236.5 -95t80.5 -218q0 -170 -125.5 -259t-326.5 -89z" />
<glyph unicode="t" horiz-adv-x="720" d="M483 0q-154 0 -231.5 89t-77.5 216v529h-113v202h113v316h266v-316h189v-202h-189v-512q0 -96 92 -97h97v-225h-146z" />
<glyph unicode="u" horiz-adv-x="1173" d="M764 0v98q-104 -111 -266 -110q-78 0 -142.5 24.5t-117 76.5t-77 127t-24.5 169v682h266v-645q0 -100 51.5 -147.5t125.5 -47.5q76 0 127 46t51 149v645h266v-1067h-260z" />
<glyph unicode="v" horiz-adv-x="1009" d="M610 0h-209l-393 1067h281l217 -659l215 659h280z" />
<glyph unicode="w" horiz-adv-x="1554" d="M1221 0h-220l-223 670l-223 -670h-219l-328 1067h283l172 -659l217 659h194l220 -659l172 659h280z" />
<glyph unicode="x" horiz-adv-x="1079" d="M735 0l-196 319l-195 -319h-319l368 545l-354 522h319l181 -305l182 305h319l-354 -522l369 -545h-320z" />
<glyph unicode="y" horiz-adv-x="1011" d="M547 -172q-18 -49 -35.5 -80t-52.5 -65.5t-93.5 -54t-127.5 -19.5h-105v239h62q57 0 84.5 19.5t48.5 77.5l45 131l-365 991h281l221 -659l213 659h281z" />
<glyph unicode="z" horiz-adv-x="978" d="M76 0v203l473 624h-447v240h787v-203l-479 -624h479v-240h-813z" />
<glyph unicode="{" horiz-adv-x="935" d="M639 -152q-154 0 -234.5 81t-80.5 223v297q0 88 -37 124.5t-105 36.5h-94v238h94q37 0 61.5 9t52.5 37t28 116v297q0 141 80.5 222t234.5 81h209v-240h-109q-88 0 -118.5 -31.5t-30.5 -128.5v-276q0 -98 -39 -139t-102 -66q61 -25 101 -65.5t40 -139.5v-276 q0 -96 30.5 -128t118.5 -32h109v-240h-209z" />
<glyph unicode="|" horiz-adv-x="716" d="M225 -152v1762h267v-1762h-267z" />
<glyph unicode="}" horiz-adv-x="935" d="M754 610q-37 0 -61.5 -9t-52.5 -36.5t-28 -115.5v-297q0 -141 -80.5 -222.5t-234.5 -81.5h-209v240h109q88 0 118.5 32t30.5 128v276q0 98 39 139.5t102 65.5q-61 25 -101 66t-40 139v276q0 96 -30.5 128t-118.5 32h-109v240h209q154 0 234.5 -81t80.5 -222v-297 q0 -88 37 -125t105 -37h94v-238h-94z" />
<glyph unicode="~" horiz-adv-x="1241" d="M827 399q-109 0 -199.5 48.5t-126.5 59.5t-81 11q-47 0 -85 -16.5t-91 -69.5l-168 168q96 96 169.5 136t166.5 40q109 0 201 -49t125.5 -59.5t78.5 -10.5q49 0 87 16.5t91 69.5l170 -168q-94 -94 -170 -135t-168 -41z" />
<glyph unicode="&#xa1;" horiz-adv-x="710" d="M178 795v272h281v-272h-281zM154 -391l65 1001h199l65 -1001h-329z" />
<glyph unicode="&#xa2;" horiz-adv-x="1021" d="M682 215v-215h-207v215q-172 35 -275.5 170t-103.5 365q0 227 104.5 363t274.5 171v174h207v-174q86 -14 151.5 -51t127.5 -103l-177 -172q-63 66 -131 84v-585q37 10 68 29.5t63 54.5l177 -172q-61 -63 -127 -100.5t-152 -53.5zM504 1038q-43 -12 -76 -52t-49.5 -96 t-16.5 -140q0 -82 15.5 -138.5t47.5 -97.5t79 -53v577z" />
<glyph unicode="&#xa3;" horiz-adv-x="1185" d="M207 0v608h-125v205h125v166q0 229 149.5 360t364.5 131q121 0 205 -32.5t168 -116.5l-187 -186q-45 45 -80.5 63.5t-105.5 18.5q-106 0 -169 -63.5t-63 -186.5v-154h232v-205h-232v-354h605v-254h-887z" />
<glyph unicode="&#xa4;" horiz-adv-x="1370" d="M1075 20l-151 150q-111 -66 -240 -66q-127 0 -238 66l-151 -150l-176 177l151 149q-33 53 -50 113.5t-17 126.5q0 63 17.5 123.5t49.5 115.5l-151 150l176 176l151 -150q51 31 114 48.5t124 17.5q129 0 240 -66l151 150l174 -176l-149 -150q66 -111 65 -239 q0 -129 -65 -240l149 -149zM684 825q-100 0 -170 -69.5t-70 -169.5t70 -170t170 -70q98 0 170 69.5t72 170.5q0 100 -70 169.5t-172 69.5z" />
<glyph unicode="&#xa5;" horiz-adv-x="1169" d="M885 905h151v-205h-256l-53 -102v-104h309v-205h-309v-289h-283v289h-311v205h311v104l-53 102h-258v205h154l-281 553h309l271 -590l270 590h307z" />
<glyph unicode="&#xa7;" horiz-adv-x="1087" d="M784 256q78 -39 122 -105.5t44 -179.5q0 -176 -120.5 -275t-284.5 -99q-168 0 -288 91t-120 273h256q0 -57 42 -93t110 -36q72 0 110.5 35t38.5 96q0 47 -31.5 86t-111.5 66l-127 43q-154 51 -226.5 139t-72.5 246q0 102 57.5 184t128.5 121q-74 39 -114.5 100.5 t-40.5 167.5q0 150 101 252t292 102q193 0 293 -98t100 -254h-250q0 63 -39 94t-104 31q-70 0 -106.5 -32.5t-36.5 -88.5q0 -90 137 -135l127 -41q154 -49 226.5 -138t72.5 -247q0 -102 -57.5 -184t-127.5 -121zM662 690q-23 20 -49.5 31.5t-65.5 11.5q-74 0 -106.5 -32.5 t-46 -66.5t-13.5 -83q0 -51 13.5 -83t46 -64.5t106.5 -32.5q35 0 64.5 11t51 32.5t36 53.5t14.5 83q0 49 -13 81.5t-38 57.5z" />
<glyph unicode="&#xa8;" horiz-adv-x="1024" d="M625 1241v256h227v-256h-227zM172 1241v256h227v-256h-227z" />
<glyph unicode="&#xa9;" horiz-adv-x="1728" d="M864 -12q-307 0 -524 217t-217 524t217 524t524 217t524.5 -217t217.5 -524t-217.5 -524t-524.5 -217zM864 1305q-240 0 -402.5 -165t-162.5 -411t163 -410.5t402 -164.5q240 0 401.5 163.5t161.5 411.5t-161.5 412t-401.5 164zM879 328q-160 0 -263.5 105.5 t-103.5 295.5q0 188 103.5 296t263.5 108q82 0 144 -27t126 -82l-115 -115q-39 33 -75.5 49.5t-79.5 16.5q-94 0 -143.5 -65.5t-49.5 -180.5t48 -180.5t145 -65.5q78 0 155 66l115 -115q-59 -53 -122.5 -79.5t-147.5 -26.5z" />
<glyph unicode="&#xaa;" horiz-adv-x="929" d="M592 606v74q-43 -43 -90 -62.5t-117 -19.5q-141 0 -214 75t-73 191q0 109 74 178.5t217 69.5h199v41q0 70 -37 101.5t-121 31.5q-100 0 -162 -69l-137 133q61 68 131 93t178 25q178 0 270.5 -75.5t92.5 -225.5v-561h-211zM588 967h-166q-115 0 -115 -97q0 -94 117 -94 q51 0 78.5 7.5t56.5 34t29 102.5v47z" />
<glyph unicode="&#xab;" horiz-adv-x="1286" d="M639 563l512 508v-317l-197 -191l197 -190v-318zM70 563l510 508v-317l-193 -191l193 -190v-318z" />
<glyph unicode="&#xac;" d="M770 193v296h-676v248h924v-544h-248z" />
<glyph unicode="&#xad;" horiz-adv-x="872" d="M121 461v248h631v-248h-631z" />
<glyph unicode="&#xae;" horiz-adv-x="1728" d="M864 -12q-307 0 -524 217t-217 524t217 524t524 217t524.5 -217t217.5 -524t-217.5 -524t-524.5 -217zM864 1305q-240 0 -402.5 -165t-162.5 -411q0 -248 162 -411.5t403 -163.5q240 0 403 164.5t163 410.5q0 248 -162 412t-404 164zM997 336l-143 305h-84v-305h-176v788 h321q117 0 190 -72.5t73 -174.5q0 -78 -41 -130.5t-105 -78.5l166 -332h-201zM893 979h-123v-205h123q47 0 77.5 31t30.5 72q0 43 -29.5 72.5t-78.5 29.5z" />
<glyph unicode="&#xaf;" horiz-adv-x="475" d="M-324 123v178h648v-178h-648z" />
<glyph unicode="&#xb0;" horiz-adv-x="978" d="M489 733q-158 0 -267 109.5t-109 267.5t108.5 268.5t267.5 110.5q156 0 266.5 -110.5t110.5 -268.5t-109.5 -267.5t-267.5 -109.5zM487 1274q-68 0 -113.5 -48t-45.5 -116t46 -116t115 -48q68 0 115 47t47 117t-47 117t-117 47z" />
<glyph unicode="&#xb1;" d="M682 698v-329h-250v329h-330v248h330v330h250v-330h328v-248h-328zM102 0v250h908v-250h-908z" />
<glyph unicode="&#xb2;" d="M121 0v240l545 632q41 49 58 88t17 89q0 82 -46 132t-130 50q-78 0 -128 -43t-50 -144h-266q0 197 125 311.5t319 114.5q197 0 320 -114.5t123 -308.5q0 -100 -34 -166t-122 -168l-408 -473h564v-240h-887z" />
<glyph unicode="&#xb3;" d="M551 -12q-197 0 -331 107.5t-134 322.5h266q0 -92 57.5 -141.5t141.5 -49.5q88 0 142.5 52.5t54.5 150.5q0 92 -54.5 146.5t-150.5 54.5h-39v231h39q92 0 138 50.5t46 131.5q0 88 -51 137.5t-127 49.5q-78 0 -129 -47t-51 -129h-267q0 188 128 301.5t319 113.5 q195 0 319.5 -116.5t124.5 -300.5q0 -113 -45 -185.5t-123 -113.5q88 -47 138.5 -127t50.5 -205q0 -207 -132 -320.5t-331 -113.5z" />
<glyph unicode="&#xb4;" horiz-adv-x="1024" d="M578 1237h-179l131 348h281z" />
<glyph unicode="&#xb5;" horiz-adv-x="1179" d="M770 0v98q-104 -111 -266 -110q-55 0 -94 28v-407h-267v1458h267v-645q0 -100 51 -147.5t125 -47.5q76 0 127 46t51 149v645h266v-1067h-260z" />
<glyph unicode="&#xb6;" horiz-adv-x="1368" d="M932 -391v1595h-205v-1595h-266v1022q-154 0 -271.5 121.5t-117.5 289.5q0 199 127 307.5t346 108.5h653v-1849h-266z" />
<glyph unicode="&#xb8;" horiz-adv-x="1024" d="M575 -422h-247l141 299h197z" />
<glyph unicode="&#xb9;" d="M508 0v1171l-297 -258v287l297 258h266v-1458h-266z" />
<glyph unicode="&#xba;" horiz-adv-x="946" d="M735 702q-47 -49 -108.5 -76.5t-153.5 -27.5q-88 0 -151.5 28.5t-114.5 81t-72.5 128t-21.5 196.5q0 125 19.5 198t72.5 128t114.5 82.5t153.5 27.5q88 0 151.5 -28.5t115 -81.5t73 -128t21.5 -198q0 -127 -20 -198t-79 -132zM571 1239q-37 37 -98 37t-94 -33t-42 -84 t-9 -127q0 -84 8 -129t42 -78.5t95 -33.5t94 32.5t42 83.5t9 125q0 82 -8 129t-39 78z" />
<glyph unicode="&#xbb;" horiz-adv-x="1286" d="M707 55v318l192 190l-192 191v317l512 -508zM137 55v318l195 190l-195 191v317l510 -508z" />
<glyph unicode="&#xbf;" horiz-adv-x="1071" d="M354 795v272h283v-272h-283zM504 -403q-180 0 -305 110.5t-125 298.5q0 70 25.5 131.5t74.5 124.5l152 203q37 47 36 104v41h267v-61q0 -63 -17.5 -110.5t-60.5 -102.5l-152 -195q-25 -31 -42 -68.5t-17 -68.5q0 -74 43 -121t121 -47t122 48t44 124h266 q0 -184 -124 -297.5t-308 -113.5z" />
<glyph unicode="&#xc0;" horiz-adv-x="1306" d="M999 0l-86 258h-518l-88 -258h-297l531 1458h223l532 -1458h-297zM659 1028l-184 -530h363zM583 1599l-233 348h281l131 -348h-179z" />
<glyph unicode="&#xc1;" horiz-adv-x="1306" d="M999 0l-86 258h-518l-88 -258h-297l531 1458h223l532 -1458h-297zM659 1028l-184 -530h363zM715 1599h-179l131 348h281z" />
<glyph unicode="&#xc2;" horiz-adv-x="1306" d="M999 0l-86 258h-518l-88 -258h-297l531 1458h223l532 -1458h-297zM659 1028l-184 -530h363zM819 1599l-170 186l-170 -186h-207l271 346h212l271 -346h-207z" />
<glyph unicode="&#xc3;" horiz-adv-x="1306" d="M999 0l-86 258h-518l-88 -258h-297l531 1458h223l532 -1458h-297zM659 1028l-184 -530h363zM786 1622q-76 0 -148.5 41.5t-123.5 41.5q-35 0 -58.5 -10t-62.5 -49l-115 117q68 68 119 94.5t111 26.5q45 0 78.5 -10.5t87 -42t104.5 -31.5q35 0 58.5 10t62.5 49l119 -117 q-66 -66 -119.5 -93t-112.5 -27z" />
<glyph unicode="&#xc4;" horiz-adv-x="1306" d="M999 0l-86 258h-518l-88 -258h-297l531 1458h223l532 -1458h-297zM659 1028l-184 -530h363zM762 1603v256h227v-256h-227zM309 1603v256h227v-256h-227z" />
<glyph unicode="&#xc5;" horiz-adv-x="1306" d="M999 0l-86 258h-518l-88 -258h-297l531 1458h223l532 -1458h-297zM659 1028l-184 -530h363zM649 1542q-111 0 -189.5 79t-78.5 189q0 111 78.5 190t189.5 79t189.5 -79t78.5 -190t-78.5 -189.5t-189.5 -78.5zM649 1929q-49 0 -84 -35t-35 -84q0 -47 35 -84t84 -37t84 35 t35 86q0 49 -35 84t-84 35z" />
<glyph unicode="&#xc6;" horiz-adv-x="2004" d="M938 0v319h-461l-166 -319h-305l762 1458h1128v-254h-675v-344h577v-254h-577v-352h675v-254h-958zM938 1204l-338 -645h338v645z" />
<glyph unicode="&#xc7;" horiz-adv-x="1269" d="M657 -12q-117 0 -216 41t-188 130t-110.5 208.5t-21.5 361.5q0 240 22.5 361.5t111.5 211t185.5 129t216.5 39.5q211 0 355.5 -118.5t181.5 -341.5h-289q-23 94 -83 150.5t-163 56.5q-117 0 -170 -60.5t-68 -144.5t-15 -283q0 -207 14 -284.5t68.5 -140t170.5 -62.5 q102 0 163 56t83 151h289q-37 -221 -182.5 -341t-354.5 -120zM686 -422h-247l141 299h197z" />
<glyph unicode="&#xc8;" horiz-adv-x="1239" d="M170 0v1458h960v-254h-675v-342h575v-254h-575v-354h675v-254h-960zM569 1599l-233 348h281l131 -348h-179z" />
<glyph unicode="&#xc9;" horiz-adv-x="1239" d="M170 0v1458h960v-254h-675v-342h575v-254h-575v-354h675v-254h-960zM699 1599h-179l131 348h281z" />
<glyph unicode="&#xca;" horiz-adv-x="1239" d="M170 0v1458h960v-254h-675v-342h575v-254h-575v-354h675v-254h-960zM805 1599l-170 186l-170 -186h-207l271 346h212l271 -346h-207z" />
<glyph unicode="&#xcb;" horiz-adv-x="1239" d="M170 0v1458h960v-254h-675v-342h575v-254h-575v-354h675v-254h-960zM748 1603v256h227v-256h-227zM295 1603v256h227v-256h-227z" />
<glyph unicode="&#xcc;" horiz-adv-x="624" d="M170 0v1458h285v-1458h-285zM403 1599l-233 348h281l131 -348h-179z" />
<glyph unicode="&#xcd;" horiz-adv-x="624" d="M170 0v1458h285v-1458h-285zM349 1599h-179l131 348h281z" />
<glyph unicode="&#xce;" horiz-adv-x="624" d="M170 0v1458h285v-1458h-285zM717 1599l-170 186l-170 -186h-207l271 346h212l271 -346h-207z" />
<glyph unicode="&#xcf;" horiz-adv-x="624" d="M170 0v1458h285v-1458h-285zM623 1603v256h227v-256h-227zM170 1603v256h227v-256h-227z" />
<glyph unicode="&#xd1;" horiz-adv-x="1456" d="M1032 0l-577 895v-895h-285v1458h254l577 -893v893h285v-1458h-254zM866 1622q-76 0 -148.5 41.5t-123.5 41.5q-35 0 -58.5 -10t-62.5 -49l-115 117q68 68 119 94.5t111 26.5q45 0 78.5 -10.5t87 -42t104.5 -31.5q35 0 58.5 10t62.5 49l119 -117q-66 -66 -119.5 -93 t-112.5 -27z" />
<glyph unicode="&#xd2;" horiz-adv-x="1318" d="M1053 147q-80 -80 -174.5 -119.5t-219.5 -39.5q-123 0 -219 40t-186 130t-111.5 209.5t-21.5 361.5q0 240 22.5 361.5t111.5 211t184.5 129t219.5 39.5q121 0 217.5 -39.5t185.5 -129t112.5 -213t23.5 -359.5q0 -242 -22.5 -362t-122.5 -220zM842 1139q-68 78 -183 78 q-59 0 -105 -20.5t-84 -62.5t-51 -119t-13 -286q0 -215 12 -287.5t68.5 -136t172.5 -63.5q115 0 169.5 62.5t69.5 144t15 280.5q0 209 -14 285t-57 125zM593 1599l-233 348h281l131 -348h-179z" />
<glyph unicode="&#xd3;" horiz-adv-x="1318" d="M1053 147q-80 -80 -174.5 -119.5t-219.5 -39.5q-123 0 -219 40t-186 130t-111.5 209.5t-21.5 361.5q0 240 22.5 361.5t111.5 211t184.5 129t219.5 39.5q121 0 217.5 -39.5t185.5 -129t112.5 -213t23.5 -359.5q0 -242 -22.5 -362t-122.5 -220zM842 1139q-68 78 -183 78 q-59 0 -105 -20.5t-84 -62.5t-51 -119t-13 -286q0 -215 12 -287.5t68.5 -136t172.5 -63.5q115 0 169.5 62.5t69.5 144t15 280.5q0 209 -14 285t-57 125zM725 1599h-179l131 348h281z" />
<glyph unicode="&#xd4;" horiz-adv-x="1318" d="M1053 147q-80 -80 -174.5 -119.5t-219.5 -39.5q-123 0 -219 40t-186 130t-111.5 209.5t-21.5 361.5q0 240 22.5 361.5t111.5 211t184.5 129t219.5 39.5q121 0 217.5 -39.5t185.5 -129t112.5 -213t23.5 -359.5q0 -242 -22.5 -362t-122.5 -220zM842 1139q-68 78 -183 78 q-59 0 -105 -20.5t-84 -62.5t-51 -119t-13 -286q0 -215 12 -287.5t68.5 -136t172.5 -63.5q115 0 169.5 62.5t69.5 144t15 280.5q0 209 -14 285t-57 125zM829 1599l-170 186l-170 -186h-207l271 346h212l271 -346h-207z" />
<glyph unicode="&#xd5;" horiz-adv-x="1318" d="M1053 147q-80 -80 -174.5 -119.5t-219.5 -39.5q-123 0 -219 40t-186 130t-111.5 209.5t-21.5 361.5q0 240 22.5 361.5t111.5 211t184.5 129t219.5 39.5q121 0 217.5 -39.5t185.5 -129t112.5 -213t23.5 -359.5q0 -242 -22.5 -362t-122.5 -220zM842 1139q-68 78 -183 78 q-59 0 -105 -20.5t-84 -62.5t-51 -119t-13 -286q0 -215 12 -287.5t68.5 -136t172.5 -63.5q115 0 169.5 62.5t69.5 144t15 280.5q0 209 -14 285t-57 125zM796 1622q-76 0 -148.5 41.5t-123.5 41.5q-35 0 -58.5 -10t-62.5 -49l-115 117q68 68 119 94.5t111 26.5 q45 0 78.5 -10.5t87 -42t104.5 -31.5q35 0 58.5 10t62.5 49l119 -117q-66 -66 -119.5 -93t-112.5 -27z" />
<glyph unicode="&#xd6;" horiz-adv-x="1318" d="M1053 147q-80 -80 -174.5 -119.5t-219.5 -39.5q-123 0 -219 40t-186 130t-111.5 209.5t-21.5 361.5q0 240 22.5 361.5t111.5 211t184.5 129t219.5 39.5q121 0 217.5 -39.5t185.5 -129t112.5 -213t23.5 -359.5q0 -242 -22.5 -362t-122.5 -220zM842 1139q-68 78 -183 78 q-59 0 -105 -20.5t-84 -62.5t-51 -119t-13 -286q0 -215 12 -287.5t68.5 -136t172.5 -63.5q115 0 169.5 62.5t69.5 144t15 280.5q0 209 -14 285t-57 125zM772 1603v256h227v-256h-227zM319 1603v256h227v-256h-227z" />
<glyph unicode="&#xd8;" horiz-adv-x="1335" d="M1053 147q-80 -80 -174.5 -119.5t-219.5 -39.5q-133 0 -231 45l-59 -123h-203l108 227l-10 10q-100 100 -121.5 220t-21.5 362q0 240 22.5 361.5t111.5 211t184.5 129t219.5 39.5q133 0 232 -45l59 123h201l-109 -227l11 -10q98 -98 121.5 -222t23.5 -360 q0 -242 -22.5 -362t-122.5 -220zM659 1217q-59 0 -105 -20.5t-84 -62.5t-51 -119t-13 -286q0 -233 18 -309l364 764q-53 33 -129 33zM893 1038l-365 -762q57 -35 131 -34q115 0 169.5 62.5t69.5 144t15 280.5q0 225 -20 309z" />
<glyph unicode="&#xd9;" horiz-adv-x="1368" d="M684 -12q-229 0 -383 141t-154 371v958h285v-948q0 -125 67.5 -196.5t184.5 -71.5t185.5 70.5t68.5 197.5v948h283v-958q0 -229 -153 -370.5t-384 -141.5zM618 1599l-233 348h281l131 -348h-179z" />
<glyph unicode="&#xda;" horiz-adv-x="1368" d="M684 -12q-229 0 -383 141t-154 371v958h285v-948q0 -125 67.5 -196.5t184.5 -71.5t185.5 70.5t68.5 197.5v948h283v-958q0 -229 -153 -370.5t-384 -141.5zM750 1599h-179l131 348h281z" />
<glyph unicode="&#xdb;" horiz-adv-x="1368" d="M684 -12q-229 0 -383 141t-154 371v958h285v-948q0 -125 67.5 -196.5t184.5 -71.5t185.5 70.5t68.5 197.5v948h283v-958q0 -229 -153 -370.5t-384 -141.5zM854 1599l-170 186l-170 -186h-207l271 346h212l271 -346h-207z" />
<glyph unicode="&#xdc;" horiz-adv-x="1368" d="M684 -12q-229 0 -383 141t-154 371v958h285v-948q0 -125 67.5 -196.5t184.5 -71.5t185.5 70.5t68.5 197.5v948h283v-958q0 -229 -153 -370.5t-384 -141.5zM797 1603v256h227v-256h-227zM344 1603v256h227v-256h-227z" />
<glyph unicode="&#xdd;" horiz-adv-x="1171" d="M676 1593h-179l131 348h281zM727 598v-598h-283v598l-438 860h309l273 -588l268 588h309z" />
<glyph unicode="&#xdf;" horiz-adv-x="1175" d="M973 86q-86 -86 -258 -86h-107v225h54q57 0 91.5 31t34.5 96v295q0 61 -31.5 93t-90.5 32h-58v209h58q53 0 87.5 30.5t34.5 92.5q0 57 -43 96t-139 39q-104 0 -147 -48t-43 -144v-1047h-266v1067q0 203 125.5 303t334.5 100q203 0 324 -89t121 -269q0 -84 -35 -141.5 t-90 -89.5q63 -33 95 -82t32 -142v-327q0 -162 -84 -244z" />
<glyph unicode="&#xe0;" horiz-adv-x="1093" d="M696 0v92q-55 -55 -112.5 -78.5t-149.5 -23.5q-178 0 -269 93t-91 241q0 137 92 223t272 86h252v53q0 88 -46 128t-152 40q-78 0 -119 -18.5t-86 -69.5l-170 166q78 84 161.5 115.5t223.5 31.5q455 0 454 -377v-702h-260zM690 451h-211q-150 0 -149 -121q0 -123 153 -123 q63 0 98 9t72 44t37 133v58zM469 1237l-233 348h281l131 -348h-179z" />
<glyph unicode="&#xe1;" horiz-adv-x="1093" d="M696 0v92q-55 -55 -112.5 -78.5t-149.5 -23.5q-178 0 -269 93t-91 241q0 137 92 223t272 86h252v53q0 88 -46 128t-152 40q-78 0 -119 -18.5t-86 -69.5l-170 166q78 84 161.5 115.5t223.5 31.5q455 0 454 -377v-702h-260zM690 451h-211q-150 0 -149 -121q0 -123 153 -123 q63 0 98 9t72 44t37 133v58zM601 1237h-179l131 348h281z" />
<glyph unicode="&#xe2;" horiz-adv-x="1093" d="M696 0v92q-55 -55 -112.5 -78.5t-149.5 -23.5q-178 0 -269 93t-91 241q0 137 92 223t272 86h252v53q0 88 -46 128t-152 40q-78 0 -119 -18.5t-86 -69.5l-170 166q78 84 161.5 115.5t223.5 31.5q455 0 454 -377v-702h-260zM690 451h-211q-150 0 -149 -121q0 -123 153 -123 q63 0 98 9t72 44t37 133v58zM705 1237l-170 186l-170 -186h-207l271 346h212l271 -346h-207z" />
<glyph unicode="&#xe3;" horiz-adv-x="1093" d="M696 0v92q-55 -55 -112.5 -78.5t-149.5 -23.5q-178 0 -269 93t-91 241q0 137 92 223t272 86h252v53q0 88 -46 128t-152 40q-78 0 -119 -18.5t-86 -69.5l-170 166q78 84 161.5 115.5t223.5 31.5q455 0 454 -377v-702h-260zM690 451h-211q-150 0 -149 -121q0 -123 153 -123 q63 0 98 9t72 44t37 133v58zM672 1260q-76 0 -148.5 41.5t-123.5 41.5q-35 0 -58.5 -10t-62.5 -49l-115 117q68 68 119 94.5t111 26.5q45 0 78.5 -10.5t87 -42t104.5 -31.5q35 0 58.5 10t62.5 49l119 -117q-66 -66 -119.5 -93t-112.5 -27z" />
<glyph unicode="&#xe4;" horiz-adv-x="1093" d="M696 0v92q-55 -55 -112.5 -78.5t-149.5 -23.5q-178 0 -269 93t-91 241q0 137 92 223t272 86h252v53q0 88 -46 128t-152 40q-78 0 -119 -18.5t-86 -69.5l-170 166q78 84 161.5 115.5t223.5 31.5q455 0 454 -377v-702h-260zM690 451h-211q-150 0 -149 -121q0 -123 153 -123 q63 0 98 9t72 44t37 133v58zM648 1241v256h227v-256h-227zM195 1241v256h227v-256h-227z" />
<glyph unicode="&#xe5;" horiz-adv-x="1093" d="M696 0v92q-55 -55 -112.5 -78.5t-149.5 -23.5q-178 0 -269 93t-91 241q0 137 92 223t272 86h252v53q0 88 -46 128t-152 40q-78 0 -119 -18.5t-86 -69.5l-170 166q78 84 161.5 115.5t223.5 31.5q455 0 454 -377v-702h-260zM690 451h-211q-150 0 -149 -121q0 -123 153 -123 q63 0 98 9t72 44t37 133v58zM535 1196q-111 0 -189.5 79t-78.5 189q0 111 78.5 190t189.5 79t189.5 -79t78.5 -190t-78.5 -189.5t-189.5 -78.5zM535 1583q-49 0 -84 -35t-35 -84q0 -47 35 -84t84 -37t84 35t35 86q0 49 -35 84t-84 35z" />
<glyph unicode="&#xe6;" horiz-adv-x="1716" d="M952 451q0 -106 61.5 -172t172.5 -66q82 0 134 22.5t107 77.5l162 -157q-88 -88 -177 -128t-228 -40q-115 0 -210 34.5t-165 114.5q-84 -90 -167 -119.5t-208 -29.5q-176 0 -268 94t-92 242q0 137 92 223t272 86h252v53q0 88 -46 128t-152 40q-78 0 -119 -18.5t-86 -69.5 l-170 166q78 84 161.5 115.5t223.5 31.5q242 0 350 -116q115 117 303 116q217 0 341 -142t124 -368v-118h-668zM1333 748q-23 51 -67.5 80.5t-110.5 29.5t-111 -29.5t-68.5 -85t-23.5 -110.5h406q0 56 -25 115zM690 451h-211q-150 0 -149 -121q0 -123 153 -123q63 0 98 9 t72 44t37 133v58z" />
<glyph unicode="&#xe7;" horiz-adv-x="987" d="M573 -12q-193 0 -335 126t-142 421t141.5 419.5t335.5 124.5q215 0 353 -143l-181 -180q-41 45 -80.5 64.5t-91.5 19.5q-94 0 -152.5 -72t-58.5 -233q0 -164 58.5 -236t152.5 -72t172 84l181 -178q-140 -145 -353 -145zM575 -422h-247l141 299h197z" />
<glyph unicode="&#xe8;" horiz-adv-x="1122" d="M358 451q0 -106 61.5 -172t172.5 -66q82 0 134 22.5t108 77.5l161 -157q-88 -88 -177 -128t-228 -40q-219 0 -356.5 122.5t-137.5 424.5q0 256 127 400t338 144q217 0 341 -142t124 -368v-118h-668zM739 748q-23 51 -67.5 80.5t-110.5 29.5t-110.5 -29.5t-68.5 -85 t-24 -110.5h406q0 56 -25 115zM501 1237l-233 348h281l131 -348h-179z" />
<glyph unicode="&#xe9;" horiz-adv-x="1122" d="M358 451q0 -106 61.5 -172t172.5 -66q82 0 134 22.5t108 77.5l161 -157q-88 -88 -177 -128t-228 -40q-219 0 -356.5 122.5t-137.5 424.5q0 256 127 400t338 144q217 0 341 -142t124 -368v-118h-668zM739 748q-23 51 -67.5 80.5t-110.5 29.5t-110.5 -29.5t-68.5 -85 t-24 -110.5h406q0 56 -25 115zM633 1237h-179l131 348h281z" />
<glyph unicode="&#xea;" horiz-adv-x="1122" d="M358 451q0 -106 61.5 -172t172.5 -66q82 0 134 22.5t108 77.5l161 -157q-88 -88 -177 -128t-228 -40q-219 0 -356.5 122.5t-137.5 424.5q0 256 127 400t338 144q217 0 341 -142t124 -368v-118h-668zM739 748q-23 51 -67.5 80.5t-110.5 29.5t-110.5 -29.5t-68.5 -85 t-24 -110.5h406q0 56 -25 115zM737 1237l-170 186l-170 -186h-207l271 346h212l271 -346h-207z" />
<glyph unicode="&#xeb;" horiz-adv-x="1122" d="M358 451q0 -106 61.5 -172t172.5 -66q82 0 134 22.5t108 77.5l161 -157q-88 -88 -177 -128t-228 -40q-219 0 -356.5 122.5t-137.5 424.5q0 256 127 400t338 144q217 0 341 -142t124 -368v-118h-668zM739 748q-23 51 -67.5 80.5t-110.5 29.5t-110.5 -29.5t-68.5 -85 t-24 -110.5h406q0 56 -25 115zM680 1241v256h227v-256h-227zM227 1241v256h227v-256h-227z" />
<glyph unicode="&#xec;" horiz-adv-x="563" d="M150 0v1067h266v-1067h-266zM383 1237l-233 348h281l131 -348h-179z" />
<glyph unicode="&#xed;" horiz-adv-x="563" d="M150 0v1067h266v-1067h-266zM328 1237h-179l131 348h281z" />
<glyph unicode="&#xee;" horiz-adv-x="563" d="M150 0v1067h266v-1067h-266zM696 1237l-170 186l-170 -186h-207l271 346h212l271 -346h-207z" />
<glyph unicode="&#xef;" horiz-adv-x="563" d="M150 0v1067h266v-1067h-266zM602 1241v256h227v-256h-227zM149 1241v256h227v-256h-227z" />
<glyph unicode="&#xf1;" horiz-adv-x="1173" d="M770 0v645q0 100 -51 147.5t-125 47.5q-76 0 -127 -46t-51 -149v-645h-266v1067h260v-98q104 111 266 110q78 0 142.5 -24.5t116.5 -76.5t76.5 -127t24.5 -169v-682h-266zM731 1260q-76 0 -148.5 41.5t-123.5 41.5q-35 0 -58.5 -10t-62.5 -49l-115 117q68 68 119 94.5 t111 26.5q45 0 78.5 -10.5t87 -42t104.5 -31.5q35 0 58.5 10t62.5 49l119 -117q-66 -66 -119.5 -93t-112.5 -27z" />
<glyph unicode="&#xf2;" d="M887 119q-55 -59 -137 -95t-195 -36q-111 0 -192.5 35.5t-144 101t-88.5 161t-26 249.5q0 158 25 247.5t88.5 157.5t144 103.5t193.5 35.5q111 0 193.5 -35.5t145 -101t88.5 -161t26 -246.5q0 -160 -24.5 -250t-96.5 -166zM680 793q-47 47 -125 47q-76 0 -118 -42 t-54 -104.5t-12 -158.5q0 -129 14 -178.5t54 -89.5t116 -40q78 0 120 42t54 104.5t12 161.5q0 104 -10 160.5t-51 97.5zM483 1237l-233 348h281l131 -348h-179z" />
<glyph unicode="&#xf3;" d="M887 119q-55 -59 -137 -95t-195 -36q-111 0 -192.5 35.5t-144 101t-88.5 161t-26 249.5q0 158 25 247.5t88.5 157.5t144 103.5t193.5 35.5q111 0 193.5 -35.5t145 -101t88.5 -161t26 -246.5q0 -160 -24.5 -250t-96.5 -166zM680 793q-47 47 -125 47q-76 0 -118 -42 t-54 -104.5t-12 -158.5q0 -129 14 -178.5t54 -89.5t116 -40q78 0 120 42t54 104.5t12 161.5q0 104 -10 160.5t-51 97.5zM623 1237h-179l131 348h281z" />
<glyph unicode="&#xf4;" d="M887 119q-55 -59 -137 -95t-195 -36q-111 0 -192.5 35.5t-144 101t-88.5 161t-26 249.5q0 158 25 247.5t88.5 157.5t144 103.5t193.5 35.5q111 0 193.5 -35.5t145 -101t88.5 -161t26 -246.5q0 -160 -24.5 -250t-96.5 -166zM680 793q-47 47 -125 47q-76 0 -118 -42 t-54 -104.5t-12 -158.5q0 -129 14 -178.5t54 -89.5t116 -40q78 0 120 42t54 104.5t12 161.5q0 104 -10 160.5t-51 97.5zM727 1237l-170 186l-170 -186h-207l271 346h212l271 -346h-207z" />
<glyph unicode="&#xf5;" d="M887 119q-55 -59 -137 -95t-195 -36q-111 0 -192.5 35.5t-144 101t-88.5 161t-26 249.5q0 158 25 247.5t88.5 157.5t144 103.5t193.5 35.5q111 0 193.5 -35.5t145 -101t88.5 -161t26 -246.5q0 -160 -24.5 -250t-96.5 -166zM680 793q-47 47 -125 47q-76 0 -118 -42 t-54 -104.5t-12 -158.5q0 -129 14 -178.5t54 -89.5t116 -40q78 0 120 42t54 104.5t12 161.5q0 104 -10 160.5t-51 97.5zM694 1260q-76 0 -148.5 41.5t-123.5 41.5q-35 0 -58.5 -10t-62.5 -49l-115 117q68 68 119 94.5t111 26.5q45 0 78.5 -10.5t87 -42t104.5 -31.5 q35 0 58.5 10t62.5 49l119 -117q-66 -66 -119.5 -93t-112.5 -27z" />
<glyph unicode="&#xf6;" d="M887 119q-55 -59 -137 -95t-195 -36q-111 0 -192.5 35.5t-144 101t-88.5 161t-26 249.5q0 158 25 247.5t88.5 157.5t144 103.5t193.5 35.5q111 0 193.5 -35.5t145 -101t88.5 -161t26 -246.5q0 -160 -24.5 -250t-96.5 -166zM680 793q-47 47 -125 47q-76 0 -118 -42 t-54 -104.5t-12 -158.5q0 -129 14 -178.5t54 -89.5t116 -40q78 0 120 42t54 104.5t12 161.5q0 104 -10 160.5t-51 97.5zM670 1241v256h227v-256h-227zM217 1241v256h227v-256h-227z" />
<glyph unicode="&#xf7;" d="M424 866v267h266v-267h-266zM94 461v248h924v-248h-924zM424 37v266h266v-266h-266z" />
<glyph unicode="&#xf8;" d="M887 119q-55 -59 -137 -95t-195 -36q-63 0 -114.5 12t-98.5 35l-74 -125h-162l121 207q-72 72 -97.5 168t-25.5 250q0 158 25 247.5t88.5 157.5t144 103.5t193.5 35.5q125 0 215 -45l72 123h164l-123 -207q72 -74 98.5 -168t26.5 -247q0 -160 -24.5 -250t-96.5 -166z M555 840q-76 0 -118 -42t-54 -104.5t-12 -158.5q0 -63 3 -101.5t11 -75.5l270 455q-43 27 -100 27zM725 709l-268 -455q43 -27 98 -27q78 0 120 42t54 104.5t12 161.5q0 76 -3 104.5t-13 69.5z" />
<glyph unicode="&#xf9;" horiz-adv-x="1173" d="M764 0v98q-104 -111 -266 -110q-78 0 -142.5 24.5t-117 76.5t-77 127t-24.5 169v682h266v-645q0 -100 51.5 -147.5t125.5 -47.5q76 0 127 46t51 149v645h266v-1067h-260zM514 1237l-233 348h281l131 -348h-179z" />
<glyph unicode="&#xfa;" horiz-adv-x="1173" d="M764 0v98q-104 -111 -266 -110q-78 0 -142.5 24.5t-117 76.5t-77 127t-24.5 169v682h266v-645q0 -100 51.5 -147.5t125.5 -47.5q76 0 127 46t51 149v645h266v-1067h-260zM646 1237h-179l131 348h281z" />
<glyph unicode="&#xfb;" horiz-adv-x="1173" d="M764 0v98q-104 -111 -266 -110q-78 0 -142.5 24.5t-117 76.5t-77 127t-24.5 169v682h266v-645q0 -100 51.5 -147.5t125.5 -47.5q76 0 127 46t51 149v645h266v-1067h-260zM750 1237l-170 186l-170 -186h-207l271 346h212l271 -346h-207z" />
<glyph unicode="&#xfc;" horiz-adv-x="1173" d="M764 0v98q-104 -111 -266 -110q-78 0 -142.5 24.5t-117 76.5t-77 127t-24.5 169v682h266v-645q0 -100 51.5 -147.5t125.5 -47.5q76 0 127 46t51 149v645h266v-1067h-260zM693 1241v256h227v-256h-227zM240 1241v256h227v-256h-227z" />
<glyph unicode="&#xfd;" horiz-adv-x="1011" d="M594 1202h-179l131 348h281zM547 -172q-18 -49 -35.5 -80t-52.5 -65.5t-93.5 -54t-127.5 -19.5h-105v239h62q57 0 84.5 19.5t48.5 77.5l45 131l-365 991h281l221 -659l213 659h281z" />
<glyph unicode="&#xff;" horiz-adv-x="1011" d="M547 -172q-18 -49 -35.5 -80t-52.5 -65.5t-93.5 -54t-127.5 -19.5h-105v239h62q57 0 84.5 19.5t48.5 77.5l45 131l-365 991h281l221 -659l213 659h281zM613 1241v256h227v-256h-227zM160 1241v256h227v-256h-227z" />
<glyph unicode="&#x131;" horiz-adv-x="563" d="M150 0v1067h266v-1067h-266z" />
<glyph unicode="&#x152;" horiz-adv-x="1978" d="M913 0v90q-47 -51 -120.5 -76.5t-141.5 -25.5q-233 0 -358 125t-148.5 254t-23.5 362q0 242 22.5 366t148.5 249.5t359 125.5q76 0 144.5 -24.5t117.5 -77.5v90h953v-252h-670l2 -346h569v-250h-569l-2 -358h672v-252h-955zM842 1139q-68 78 -183 78q-59 0 -105 -20.5 t-84 -62.5t-51 -119t-13 -286q0 -215 12 -287.5t68.5 -136t172.5 -63.5q115 0 169.5 62.5t69.5 144t15 280.5q0 209 -14 285t-57 125z" />
<glyph unicode="&#x153;" horiz-adv-x="1767" d="M1004 451q0 -106 61 -172t172 -66q82 0 133 22.5t107 77.5l163 -157q-88 -88 -177 -128t-228 -40q-109 0 -201 32.5t-155 102.5q-51 -63 -133 -99t-191 -36q-111 0 -192.5 35.5t-144 101t-88.5 161t-26 249.5q0 158 25 247.5t88.5 157.5t144 103.5t193.5 35.5 q111 0 193.5 -37.5t136.5 -103.5q117 141 321 141q217 0 341 -142t124 -368v-118h-667zM1384 748q-23 51 -67.5 80.5t-110.5 29.5t-111.5 -29.5t-68 -82t-22.5 -113.5h403q0 62 -23 115zM680 793q-47 47 -125 47q-76 0 -118 -42t-54 -104.5t-12 -158.5q0 -129 14 -178.5 t54 -89.5t116 -40q78 0 120 42t54 104.5t12 161.5q0 104 -10 160.5t-51 97.5z" />
<glyph unicode="&#x178;" horiz-adv-x="1171" d="M727 598v-598h-283v598l-438 860h309l273 -588l268 588h309zM697 1603v256h227v-256h-227zM244 1603v256h227v-256h-227z" />
<glyph unicode="&#x2c6;" horiz-adv-x="1232" d="M825 797l-209 385l-208 -385h-279l365 676h245l365 -676h-279z" />
<glyph unicode="&#x2c9;" horiz-adv-x="1024" d="M188 1290v178h648v-178h-648z" />
<glyph unicode="&#x2da;" horiz-adv-x="1024" d="M512 1196q-111 0 -189.5 79t-78.5 189q0 111 78.5 190t189.5 79t189.5 -79t78.5 -190t-78.5 -189.5t-189.5 -78.5zM512 1583q-49 0 -84 -35t-35 -84q0 -47 35 -84t84 -37t84 35t35 86q0 49 -35 84t-84 35z" />
<glyph unicode="&#x2dc;" horiz-adv-x="475" d="M137 123q-76 0 -148.5 41.5t-123.5 41.5q-35 0 -58.5 -10t-62.5 -49l-115 117q68 68 119 94.5t111 26.5q45 0 78.5 -10.5t87 -42t104.5 -31.5q35 0 58.5 10t62.5 49l119 -117q-66 -66 -119.5 -93t-112.5 -27z" />
<glyph unicode="&#x302;" horiz-adv-x="1024" d="M682 1237l-170 186l-170 -186h-207l271 346h212l271 -346h-207z" />
<glyph unicode="&#x303;" horiz-adv-x="1024" d="M649 1260q-76 0 -148.5 41.5t-123.5 41.5q-35 0 -58.5 -10t-62.5 -49l-115 117q68 68 119 94.5t111 26.5q45 0 78.5 -10.5t87 -42t104.5 -31.5q35 0 58.5 10t62.5 49l119 -117q-66 -66 -119.5 -93t-112.5 -27z" />
<glyph unicode="&#x2000;" horiz-adv-x="1038" />
<glyph unicode="&#x2001;" horiz-adv-x="2078" />
<glyph unicode="&#x2002;" horiz-adv-x="1038" />
<glyph unicode="&#x2003;" horiz-adv-x="2078" />
<glyph unicode="&#x2004;" horiz-adv-x="692" />
<glyph unicode="&#x2005;" horiz-adv-x="518" />
<glyph unicode="&#x2006;" horiz-adv-x="346" />
<glyph unicode="&#x2007;" horiz-adv-x="346" />
<glyph unicode="&#x2008;" horiz-adv-x="258" />
<glyph unicode="&#x2009;" horiz-adv-x="415" />
<glyph unicode="&#x200a;" horiz-adv-x="114" />
<glyph unicode="&#x2010;" horiz-adv-x="872" d="M121 461v248h631v-248h-631z" />
<glyph unicode="&#x2011;" horiz-adv-x="872" d="M121 461v248h631v-248h-631z" />
<glyph unicode="&#x2012;" horiz-adv-x="872" d="M121 461v248h631v-248h-631z" />
<glyph unicode="&#x2013;" d="M102 461v248h908v-248h-908z" />
<glyph unicode="&#x2014;" horiz-adv-x="2103" d="M121 463v256h1861v-256h-1861z" />
<glyph unicode="&#x2018;" horiz-adv-x="559" d="M139 1206v252l279 215v-467h-279z" />
<glyph unicode="&#x2019;" horiz-adv-x="559" d="M139 993v465h279v-254z" />
<glyph unicode="&#x201a;" horiz-adv-x="555" d="M139 -213v467h279v-254z" />
<glyph unicode="&#x201c;" horiz-adv-x="987" d="M569 1206v252l279 215v-467h-279zM139 1206v252l277 215v-467h-277z" />
<glyph unicode="&#x201d;" horiz-adv-x="987" d="M569 993v465h279v-254zM139 993v465h277v-254z" />
<glyph unicode="&#x201e;" horiz-adv-x="993" d="M569 -213v467h279v-254zM139 -213v467h277v-254z" />
<glyph unicode="&#x2022;" horiz-adv-x="1009" d="M504 350q-139 0 -236.5 97.5t-97.5 236.5t97.5 236.5t236.5 97.5t236.5 -97.5t97.5 -236.5t-97.5 -236.5t-236.5 -97.5z" />
<glyph unicode="&#x2026;" horiz-adv-x="1732" d="M1305 0v289h288v-289h-288zM721 0v289h289v-289h-289zM139 0v289h291v-289h-291z" />
<glyph unicode="&#x202f;" horiz-adv-x="415" />
<glyph unicode="&#x2039;" horiz-adv-x="716" d="M70 563l510 508v-317l-193 -191l193 -190v-318z" />
<glyph unicode="&#x203a;" horiz-adv-x="716" d="M137 55v318l195 190l-195 191v317l510 -508z" />
<glyph unicode="&#x205f;" horiz-adv-x="518" />
<glyph unicode="&#x2122;" horiz-adv-x="1892" d="M1567 584v516l-164 -322h-172l-164 322v-516h-195v874h195l250 -467l250 467h194v-874h-194zM512 1284v-700h-195v700h-225v174h645v-174h-225z" />
<glyph unicode="&#xe000;" horiz-adv-x="1065" d="M0 1065h1065v-1065h-1065v1065z" />
<glyph unicode="&#xfb01;" horiz-adv-x="1263" d="M845 1249v217h273v-217h-273zM850 0v1067h266v-1067h-266zM449 834v-834h-267v834h-110v202h110v133q0 125 79 215.5t233 90.5h151v-226h-104q-92 0 -92 -96v-117h196v-202h-196z" />
<glyph unicode="&#xfb02;" horiz-adv-x="1366" d="M1151 0q-154 0 -233 89t-79 216v1153h267v-1136q0 -96 94 -97h102v-225h-151zM449 834v-834h-267v834h-110v202h110v133q0 125 79 215.5t233 90.5h151v-226h-104q-92 0 -92 -96v-117h196v-202h-196z" />
<glyph unicode="&#xfb03;" horiz-adv-x="1964" d="M1546 1249v217h273v-217h-273zM1551 0v1067h266v-1067h-266zM1149 834v-834h-267v834h-110v202h110v133q0 125 79 215.5t233 90.5h151v-226h-104q-92 0 -92 -96v-117h196v-202h-196zM449 834v-834h-267v834h-110v202h110v133q0 125 79 215.5t233 90.5h151v-226h-104 q-92 0 -92 -96v-117h196v-202h-196z" />
<glyph unicode="&#xfb04;" horiz-adv-x="2066" d="M1852 0q-154 0 -233 89t-79 216v1153h267v-1136q0 -96 94 -97h102v-225h-151zM1149 834v-834h-267v834h-110v202h110v133q0 125 79 215.5t233 90.5h151v-226h-104q-92 0 -92 -96v-117h196v-202h-196zM449 834v-834h-267v834h-110v202h110v133q0 125 79 215.5t233 90.5 h151v-226h-104q-92 0 -92 -96v-117h196v-202h-196z" />
</font>
</defs>
</svg>
