<?xml version="1.0" standalone="no"?>
<!DOCTYPE svg PUBLIC "-//W3C//DTD SVG 1.1//EN" "http://www.w3.org/Graphics/SVG/1.1/DTD/svg11.dtd" >
<svg xmlns="http://www.w3.org/2000/svg">
<metadata>
This is a custom SVG webfont generated by Font Squirrel.
Copyright   : 251 Dutch Design AlbertJan Pool 1995 Published by FontShop International FontFont release 15
</metadata>
<defs>
<font id="webfontQxZVoZis" horiz-adv-x="1069" >
<font-face units-per-em="2048" ascent="1638" descent="-410" />
<missing-glyph horiz-adv-x="509" />
<glyph unicode=" "  horiz-adv-x="509" />
<glyph unicode="&#x09;" horiz-adv-x="509" />
<glyph unicode="&#xa0;" horiz-adv-x="509" />
<glyph unicode="!" horiz-adv-x="647" d="M418 410h-127l-21 1048h170zM266 0v172h176v-172h-176z" />
<glyph unicode="&#x22;" horiz-adv-x="866" d="M524 1110v348h162v-348h-162zM180 1110v348h162v-348h-162z" />
<glyph unicode="#" horiz-adv-x="1337" d="M1036 885l-47 -289h182v-131h-202l-74 -465h-152l74 465h-328l-71 -465h-152l74 465h-182v131h204l48 289h-189v135h207l70 440h153l-71 -440h325l70 440h149l-69 -440h178v-135h-197zM559 885l-47 -289h326l47 289h-326z" />
<glyph unicode="$" horiz-adv-x="1220" d="M659 -8v-225h-122v221q-258 0 -451 192l107 107q158 -158 352 -158v543l-41 4q-76 6 -147.5 37.5t-151.5 102.5t-80 243q0 178 111.5 293.5t300.5 115.5v183h122v-183q113 0 202 -38.5t179 -118.5l-100 -101q-68 61 -132.5 92t-154.5 31v-530l64 -10q104 -16 159.5 -39 t142.5 -96.5t87 -256.5q0 -180 -123 -294.5t-324 -114.5zM545 1333q-127 -10 -196.5 -81.5t-69.5 -186.5q0 -111 52 -156t103 -64.5t111 -27.5v516zM879 580q-51 45 -103.5 55t-122.5 20v-526q137 0 217 73.5t80 194.5q1 122 -71 183z" />
<glyph unicode="%" horiz-adv-x="1705" d="M1298 -14q-123 0 -199.5 74.5t-76.5 201.5v215q0 125 78 201t198 76q121 0 199 -76t78 -201v-215q0 -125 -78 -200.5t-199 -75.5zM573 0h-122l684 1458h122zM410 707q-123 0 -200 74.5t-77 199.5v215q0 125 78 201t199 76t198.5 -76t77.5 -201v-215q0 -123 -77.5 -198.5 t-198.5 -75.5zM1458 473q0 84 -39 131t-121 47t-120.5 -47t-38.5 -131v-207q0 -86 37.5 -132t121.5 -46q82 0 121 46t39 132v207zM569 1192q0 84 -38.5 131t-120.5 47t-121 -47t-39 -131v-207q0 -86 39 -131t121 -45q80 0 119.5 46t39.5 130v207z" />
<glyph unicode="&#x26;" horiz-adv-x="1513" d="M1180 0l-131 160q-72 -66 -174.5 -119t-256.5 -53q-211 0 -335.5 116.5t-124.5 307.5q0 113 60.5 209t254.5 227q-80 96 -119 162.5t-39 154.5q0 131 91.5 218t230.5 87q137 0 227 -88t90 -219q0 -84 -42 -145.5t-119 -114.5l-109 -74l373 -448q45 70 63.5 141.5 t18.5 192.5h147q0 -145 -31.5 -253t-103.5 -194l223 -268h-194zM637 1337q-74 0 -121 -47t-47 -123q0 -49 27.5 -98t103.5 -141l78 53q63 45 97 85t34 97q0 72 -49 123t-123 51zM559 750q-131 -90 -190.5 -156t-59.5 -178q0 -129 85 -210t222 -81q94 0 173 29.5t172 111.5z " />
<glyph unicode="'" horiz-adv-x="522" d="M180 1110v348h162v-348h-162z" />
<glyph unicode="(" horiz-adv-x="610" d="M379 -193l-75 77q-42 44 -69.5 94.5t-37 102.5t-9.5 114v1069q0 72 8.5 115.5t36 96t74.5 101.5l72 74l100 -101l-62 -64q-30 -32 -55.5 -83t-25.5 -152v-1044q0 -100 24.5 -149.5t48 -76t70.5 -73.5z" />
<glyph unicode=")" horiz-adv-x="610" d="M379 -16q-29 -53 -76 -103l-72 -74l-104 105q31 33 63 63q31 35 47.5 68t23.5 71t7 93v1044q0 104 -21.5 147.5t-34.5 60t-85 87.5l104 105l75 -77q42 -44 71 -95.5t36 -97.5t7 -117v-1069q0 -66 -7 -115t-34 -96z" />
<glyph unicode="*" horiz-adv-x="970" d="M776 866l-239 146l8 -281h-119l8 281l-237 -146l-60 101l246 133l-246 135l60 98l237 -145l-8 280h119l-8 -280l239 145l58 -98l-246 -135l246 -133z" />
<glyph unicode="+" d="M604 479v-360h-137v360h-361v137h361v357h137v-357h359v-137h-359z" />
<glyph unicode="," horiz-adv-x="540" d="M180 -295v475h180v-313z" />
<glyph unicode="-" horiz-adv-x="872" d="M156 483v138h561v-138h-561z" />
<glyph unicode="." horiz-adv-x="552" d="M180 0v193h193v-193h-193z" />
<glyph unicode="/" horiz-adv-x="727" d="M145 -152h-145l584 1762h145z" />
<glyph unicode="0" d="M535 -12q-174 0 -287 110.5t-113 290.5v680q0 178 113.5 289.5t286.5 111.5q174 0 286.5 -110.5t112.5 -290.5v-680q0 -178 -113.5 -289.5t-285.5 -111.5zM786 1061q0 123 -66.5 200.5t-184.5 77.5q-119 0 -185.5 -76.5t-66.5 -201.5v-664q0 -123 66.5 -200.5 t185.5 -77.5t185 76.5t66 201.5v664z" />
<glyph unicode="1" d="M528 0v1294l-272 -239v168l272 235h148v-1458h-148z" />
<glyph unicode="2" d="M139 0v131l576 731q82 106 82 215q0 121 -66.5 191.5t-187.5 70.5q-111 0 -182.5 -64.5t-71.5 -199.5h-148q0 174 110.5 284.5t291.5 110.5q180 0 290.5 -106.5t110.5 -286.5q0 -86 -25.5 -148.5t-91.5 -146.5l-510 -651h627v-131h-805z" />
<glyph unicode="3" d="M514 -14q-184 0 -306 98t-122 287h147q0 -127 83 -190.5t198 -63.5q121 0 201 75.5t80 206.5q0 137 -70 210t-217 73h-31v129h31q131 0 195.5 68.5t64.5 195.5t-71.5 196.5t-182.5 69.5q-113 0 -182.5 -65.5t-79.5 -177.5h-148q0 172 118 273.5t292 101.5 q178 0 289.5 -110t111.5 -286q0 -233 -196 -323q223 -84 223 -357q0 -195 -121 -303t-307 -108z" />
<glyph unicode="4" d="M809 231v-231h-145v231h-582v134l526 1093h158l-526 -1093h424v413h145v-413h178v-134h-178z" />
<glyph unicode="5" d="M829 94q-53 -53 -123.5 -80.5t-166.5 -27.5q-92 0 -168 27.5t-126 78.5t-76 111.5t-26 140.5h148q14 -113 73.5 -170t174.5 -57q113 0 165 52t73.5 117.5t21.5 194.5q0 162 -50.5 258.5t-195.5 96.5q-94 0 -156.5 -38t-85.5 -106h-133v766h737v-131h-604v-463 q90 100 262 101q160 0 234 -74t106.5 -162t32.5 -248q0 -168 -30 -249t-87 -138z" />
<glyph unicode="6" d="M539 -12q-184 0 -295 114.5t-111 305.5q0 143 92 327l359 723h151l-325 -655q68 31 153 31q168 0 273.5 -116t105.5 -298q0 -190 -109.5 -311t-293.5 -121zM537 709q-117 0 -186.5 -80t-69.5 -215t69.5 -215t186.5 -80t187.5 81t70.5 214q0 127 -67.5 211t-190.5 84z" />
<glyph unicode="7" d="M459 0h-156l506 1327h-508v-229h-145v360h809v-131z" />
<glyph unicode="8" d="M535 -12q-182 0 -306.5 115.5t-124.5 297.5q0 121 59.5 209t160.5 146q-88 51 -139.5 133t-51.5 190q0 170 112.5 280.5t289.5 110.5q172 0 286.5 -110.5t114.5 -280.5q0 -111 -49 -191.5t-139 -131.5q98 -55 157.5 -145.5t59.5 -209.5q0 -182 -122 -297.5t-308 -115.5z M535 1339q-111 0 -182.5 -73.5t-71.5 -188.5q0 -117 69.5 -188.5t184.5 -71.5q113 0 183 73t70 187q0 115 -69 188.5t-184 73.5zM535 688q-119 0 -201 -82t-82 -203t80 -202.5t203 -81.5q119 0 200.5 82t81.5 202q0 121 -79.5 203t-202.5 82z" />
<glyph unicode="9" d="M844 723l-359 -723h-153l327 655q-68 -31 -155 -30q-170 0 -273.5 115.5t-103.5 297.5q0 190 109.5 311t293.5 121t295 -114.5t111 -304.5q0 -144 -92 -328zM530 1339q-117 0 -186.5 -79.5t-69.5 -215.5q0 -129 67 -211.5t189 -82.5q117 0 187.5 80.5t70.5 213.5 q0 135 -69.5 215t-188.5 80z" />
<glyph unicode=":" horiz-adv-x="608" d="M236 616v193h192v-193h-192zM236 0v193h192v-193h-192z" />
<glyph unicode=";" horiz-adv-x="608" d="M236 616v193h192v-193h-192zM240 -295v475h180v-313z" />
<glyph unicode="&#x3c;" horiz-adv-x="2103" d="M375 479l747 -745h-192l-817 817l817 817h192l-747 -745h1616v-144h-1616z" />
<glyph unicode="=" d="M106 655v138h857v-138h-857zM106 309v135h857v-135h-857z" />
<glyph unicode="&#x3e;" horiz-adv-x="2103" d="M1174 -266h-193l748 745h-1616v144h1616l-748 745h193l817 -817z" />
<glyph unicode="?" horiz-adv-x="1017" d="M831 850l-167 -242q-16 -25 -26.5 -59.5t-10.5 -59.5v-79h-148v82q0 102 64 192l166 240q37 55 52 89t15 85q0 104 -66.5 172.5t-168.5 68.5q-106 0 -172 -71.5t-66 -171.5h-147q0 160 109.5 267t275.5 107q164 0 273.5 -105t109.5 -267q0 -70 -22 -123t-71 -125zM465 0 v172h176v-172h-176z" />
<glyph unicode="@" horiz-adv-x="1460" d="M1171 0v113q-51 -66 -114.5 -96.5t-159.5 -30.5q-84 0 -157.5 32.5t-123 94t-69 144.5t-19.5 230t17.5 228.5t89.5 177.5t260 96q170 0 274 -129v160q0 84 -16 135t-80.5 115.5t-210.5 64.5h-266q-141 0 -204.5 -63.5t-82 -114.5t-18.5 -137v-690q0 -96 22.5 -145.5 t94.5 -102.5l-101 -100q-94 70 -127 139t-33 207v688q0 213 114 328.5t317 115.5h303q201 0 316.5 -115.5t115.5 -328.5v-1018zM922 862q-147 0 -197.5 -100t-50.5 -275q0 -172 50 -273t198 -101q147 0 197 100t50 274q0 172 -50 273.5t-197 101.5z" />
<glyph unicode="A" horiz-adv-x="1251" d="M1061 0l-117 330h-637l-117 -330h-165l536 1458h131l535 -1458h-166zM629 1235l-275 -770h545z" />
<glyph unicode="B" horiz-adv-x="1368" d="M778 0h-567v1458h549q193 0 311.5 -104.5t118.5 -284.5q0 -113 -59.5 -199t-155.5 -120q106 -39 171.5 -130.5t65.5 -216.5q0 -195 -116.5 -299t-317.5 -104zM748 1319h-381v-506h381q129 0 207.5 63.5t78.5 190.5q0 125 -78.5 188.5t-207.5 63.5zM764 674h-397v-535h397 q135 0 214 73t79 196t-78 194.5t-215 71.5z" />
<glyph unicode="C" horiz-adv-x="1304" d="M666 -12q-221 0 -344 122.5t-144.5 239.5t-21.5 379q0 217 12 347t144 262t354 132q199 0 334 -114.5t171 -319.5h-159q-31 137 -120 216t-226 79q-154 0 -237 -85t-100.5 -180t-17.5 -337q0 -240 17.5 -336t100.5 -181t237 -85q137 0 228 79t122 216h155 q-35 -203 -170.5 -318.5t-334.5 -115.5z" />
<glyph unicode="D" horiz-adv-x="1378" d="M1079 135q-135 -135 -368 -135h-500v1458h500q233 0 351 -117.5t139.5 -243.5t21.5 -352v-77q0 -186 -26 -313.5t-118 -219.5zM971 1212q-53 55 -126 81t-161 26h-317v-1180h317q92 0 160.5 23.5t130 88t77 180.5t15.5 314v68q0 190 -22.5 268t-73.5 131z" />
<glyph unicode="E" horiz-adv-x="1228" d="M211 0v1458h905v-139h-749v-514h639v-139h-639v-527h749v-139h-905z" />
<glyph unicode="F" horiz-adv-x="1187" d="M367 1319v-537h639v-139h-639v-643h-156v1458h905v-139h-749z" />
<glyph unicode="G" horiz-adv-x="1331" d="M1055 156q-156 -168 -389 -168q-221 0 -344 122.5t-144.5 239.5t-21.5 379q0 217 12 347t144 262t354 132q207 0 342 -118.5t168 -317.5h-156q-31 139 -124 218t-230 79q-152 0 -236 -87t-101.5 -180t-17.5 -335q0 -240 17.5 -336t100.5 -181t237 -85q174 0 266 111.5 t92 277.5v111h-358v137h514v-232q0 -127 -28.5 -215.5t-96.5 -160.5z" />
<glyph unicode="H" horiz-adv-x="1425" d="M1059 0v666h-692v-666h-156v1458h156v-653h692v653h155v-1458h-155z" />
<glyph unicode="I" horiz-adv-x="577" d="M211 0v1458h156v-1458h-156z" />
<glyph unicode="J" horiz-adv-x="1026" d="M381 -12q-203 0 -334 131l105 104q47 -47 97 -71.5t132 -24.5q143 0 221 86t78 250v995h156v-1016q0 -207 -126 -330.5t-329 -123.5z" />
<glyph unicode="K" horiz-adv-x="1331" d="M1118 0l-444 776l-307 -368v-408h-156v1458h156v-837l680 837h190l-459 -563l525 -895h-185z" />
<glyph unicode="L" horiz-adv-x="1173" d="M211 0v1458h156v-1319h745v-139h-901z" />
<glyph unicode="M" horiz-adv-x="1671" d="M1305 0v1108l-400 -879h-133l-405 879v-1108h-156v1458h156l475 -1034l463 1034h155v-1458h-155z" />
<glyph unicode="N" horiz-adv-x="1499" d="M1141 0l-774 1169v-1169h-156v1458h147l775 -1165v1165h155v-1458h-147z" />
<glyph unicode="O" horiz-adv-x="1331" d="M1038 139q-152 -152 -372 -151q-221 0 -344 122.5t-144.5 239.5t-21.5 379q0 217 12 347t144 262t354 132q221 0 344 -122.5t144.5 -239.5t21.5 -379q0 -217 -12.5 -347t-125.5 -243zM918 1227q-100 104 -252 104t-236 -87t-101.5 -180t-17.5 -335q0 -240 17.5 -335 t101.5 -181t236 -86t235.5 87t101 180t17.5 335q0 240 -17 335t-85 163z" />
<glyph unicode="P" horiz-adv-x="1290" d="M754 600h-387v-600h-156v1458h543q203 0 326.5 -115.5t123.5 -312.5q0 -195 -123.5 -312.5t-326.5 -117.5zM739 1319h-372v-580h372q143 0 226.5 74t83.5 217q0 141 -84.5 215t-225.5 74z" />
<glyph unicode="Q" horiz-adv-x="1329" d="M1141 -72l-162 162q-133 -102 -313 -102q-221 0 -344 122.5t-144.5 239.5t-21.5 379q0 217 12 347t144 262t354 132q221 0 344 -122.5t144.5 -239.5t21.5 -379q0 -205 -8.5 -323.5t-92.5 -223.5l160 -159zM918 1227q-100 104 -252 104t-236 -87t-101.5 -180t-17.5 -335 q0 -240 17.5 -335t101.5 -181t236 -86q115 0 206 70l-184 184l94 94l179 -178q37 59 48 151.5t11 280.5q0 240 -17 335t-85 163z" />
<glyph unicode="R" horiz-adv-x="1343" d="M1049 0l-332 647h-350v-647h-156v1458h559q193 0 312.5 -109.5t119.5 -295.5q0 -156 -86 -258.5t-231 -132.5l346 -662h-182zM756 1319h-389v-535h389q133 0 212 68t79 199q0 129 -80 198.5t-211 69.5z" />
<glyph unicode="S" horiz-adv-x="1204" d="M586 -12q-168 0 -280.5 43t-219.5 149l107 107q88 -88 179 -124t218 -36q160 0 252 71.5t92 198.5q0 121 -51.5 166t-91 59.5t-117.5 26.5l-170 27q-174 29 -276.5 119t-102.5 264q0 186 126 298.5t341 112.5q139 0 238.5 -36.5t195.5 -122.5l-100 -101q-68 61 -149 93 t-191 32q-145 0 -226 -72.5t-81 -197.5q0 -111 49 -153t102 -63.5t111 -31.5l159 -24q100 -14 160 -38t145 -96.5t85 -257.5q0 -190 -136.5 -301.5t-367.5 -111.5z" />
<glyph unicode="T" horiz-adv-x="1122" d="M639 1319v-1319h-156v1319h-422v139h1000v-139h-422z" />
<glyph unicode="U" horiz-adv-x="1398" d="M698 -12q-223 0 -365.5 138t-142.5 355v977h156v-964q0 -166 96.5 -266.5t255.5 -100.5q158 0 256.5 100.5t98.5 266.5v964h155v-977q0 -219 -143.5 -356t-366.5 -137z" />
<glyph unicode="V" horiz-adv-x="1118" d="M623 0h-127l-480 1458h164l379 -1179l379 1179h164z" />
<glyph unicode="W" horiz-adv-x="1748" d="M1343 0h-145l-324 1167l-323 -1167h-145l-373 1458h166l284 -1175l322 1175h139l322 -1175l284 1175h166z" />
<glyph unicode="X" horiz-adv-x="1128" d="M918 0l-355 612l-356 -612h-176l446 748l-418 710h181l323 -575l324 575h180l-420 -710l451 -748h-180z" />
<glyph unicode="Y" horiz-adv-x="1052" d="M606 602v-602h-155v602l-435 856h168l344 -698l340 698h168z" />
<glyph unicode="Z" horiz-adv-x="1138" d="M117 0v147l729 1172h-701v139h877v-131l-735 -1188h735v-139h-905z" />
<glyph unicode="[" horiz-adv-x="641" d="M188 -152v1762h363v-131h-215v-1499h215v-132h-363z" />
<glyph unicode="\" horiz-adv-x="727" d="M582 -152l-582 1756h145l582 -1756h-145z" />
<glyph unicode="]" horiz-adv-x="641" d="M90 -152v127h221v1508h-221v127h363v-1762h-363z" />
<glyph unicode="^" horiz-adv-x="1099" d="M801 846l-250 467l-252 -467h-152l336 624h135l334 -624h-151z" />
<glyph unicode="_" horiz-adv-x="1099" d="M0 -338v105h1100v-105h-1100z" />
<glyph unicode="`" horiz-adv-x="1024" d="M477 1217l-221 313h176l180 -313h-135z" />
<glyph unicode="a" horiz-adv-x="1077" d="M756 0v96q-59 -59 -125 -83.5t-166 -24.5q-106 0 -171 20.5t-127.5 84t-62.5 192.5q0 135 90.5 212.5t258.5 77.5h303v97q0 113 -60.5 167t-197.5 54q-100 0 -153.5 -24.5t-100.5 -90.5l-101 92q66 86 147 118t210 32q403 0 403 -336v-684h-147zM756 465h-283 q-225 0 -225 -178q0 -172 231 -172q78 0 129 12t99.5 58t48.5 171v109z" />
<glyph unicode="b" horiz-adv-x="1116" d="M862 76q-39 -39 -105.5 -63.5t-140.5 -24.5q-90 0 -157.5 28.5t-126.5 104.5v-121h-148v1458h148v-567q57 72 126.5 100.5t157.5 28.5q158 0 238 -80t105.5 -186.5t25.5 -249.5q0 -141 -25.5 -248.5t-97.5 -179.5zM586 889q-150 0 -202 -104.5t-52 -280.5 q0 -180 51 -282.5t203 -102.5q147 0 199.5 104.5t52.5 280.5q0 180 -51 282.5t-201 102.5z" />
<glyph unicode="c" horiz-adv-x="1003" d="M575 -12q-197 0 -321.5 134t-124.5 382q0 250 124 383t322 133q109 0 180.5 -32t151.5 -118l-100 -94q-57 63 -108.5 88t-123.5 25q-154 0 -226.5 -103.5t-72.5 -281.5q0 -96 14.5 -157.5t73 -144.5t211.5 -83q74 0 123.5 24.5t108.5 89.5l100 -96q-78 -84 -152 -116.5 t-180 -32.5z" />
<glyph unicode="d" horiz-adv-x="1116" d="M786 0v121q-57 -76 -125.5 -104.5t-160.5 -28.5q-158 0 -238 79.5t-105.5 186t-25.5 250.5q0 141 25.5 248.5t81 163t122 80t140.5 24.5q92 0 158.5 -26.5t125.5 -102.5v567h148v-1458h-146zM532 889q-150 0 -201.5 -104.5t-51.5 -280.5q0 -180 51 -282.5t202 -102.5 q147 0 199.5 104.5t52.5 280.5q0 180 -51 282.5t-201 102.5z" />
<glyph unicode="e" horiz-adv-x="1085" d="M276 465q0 -166 77 -257t220 -91q86 0 143.5 25.5t121.5 88.5l100 -88q-82 -82 -163 -118.5t-206 -36.5q-207 0 -323.5 128t-116.5 388q0 244 109.5 380t304.5 136t304 -130t109 -358v-67h-680zM778 743q-29 70 -92 111t-143 41t-142.5 -41t-86 -95t-31 -93t-7.5 -91h533 q0 61 -5.5 90t-25.5 78z" />
<glyph unicode="f" horiz-adv-x="643" d="M365 889v-889h-148v889h-129v112h129v191q0 117 66.5 193.5t189.5 76.5h107v-127h-80q-135 0 -135 -147v-187h215v-112h-215z" />
<glyph unicode="g" horiz-adv-x="1112" d="M508 -463q-113 0 -185.5 30t-156.5 105l96 95q59 -53 110.5 -77t131.5 -24q139 0 207.5 86t68.5 223v158q-57 -74 -125.5 -102.5t-156.5 -28.5q-74 0 -137.5 24.5t-120 80t-83 163t-26.5 242.5q0 143 25.5 245.5t81 158t122 80t140.5 24.5q92 0 157.5 -27.5t124.5 -103.5 v119h146v-1039q0 -190 -112.5 -311t-307.5 -121zM530 889q-147 0 -199 -103.5t-52 -273.5q0 -172 51 -274.5t200 -102.5q150 0 200 101.5t50 275.5t-50 275.5t-200 101.5z" />
<glyph unicode="h" horiz-adv-x="1150" d="M829 0v623q0 129 -64.5 197.5t-180.5 68.5q-117 0 -184.5 -69.5t-67.5 -196.5v-623h-148v1458h148v-561q109 123 282 123q170 0 266.5 -100.5t96.5 -272.5v-647h-148z" />
<glyph unicode="i" horiz-adv-x="518" d="M176 1294v166h166v-166h-166zM184 0v1008h148v-1008h-148z" />
<glyph unicode="j" horiz-adv-x="518" d="M176 1294v166h166v-166h-166zM76 -453h-107v129h80q74 0 104.5 35t30.5 113v1177h148v-1183q0 -121 -64.5 -196t-191.5 -75z" />
<glyph unicode="k" horiz-adv-x="1097" d="M848 0l-320 516l-196 -225v-291h-148v1458h148v-975l454 525h185l-342 -385l401 -623h-182z" />
<glyph unicode="l" horiz-adv-x="608" d="M436 0q-127 0 -191.5 72.5t-64.5 195.5v1190h148v-1184q0 -76 29.5 -111.5t105.5 -35.5h80v-127h-107z" />
<glyph unicode="m" horiz-adv-x="1800" d="M1479 0v621q0 131 -65.5 199.5t-182.5 68.5q-113 0 -182.5 -67.5t-69.5 -184.5v-637h-148v621q0 131 -65.5 199.5t-181.5 68.5q-117 0 -184.5 -69.5t-67.5 -198.5v-621h-148v1008h148v-111q109 123 284 123q215 0 310 -168q119 168 331 168q80 0 146.5 -24.5t144.5 -99.5 t78 -251v-645h-147z" />
<glyph unicode="n" horiz-adv-x="1150" d="M829 0v621q0 131 -65.5 199.5t-181.5 68.5q-117 0 -183.5 -68.5t-66.5 -199.5v-621h-148v1008h148v-111q109 123 282 123q164 0 263.5 -98.5t99.5 -276.5v-645h-148z" />
<glyph unicode="o" horiz-adv-x="1085" d="M831 102q-55 -55 -125.5 -84.5t-162.5 -29.5q-90 0 -162 29.5t-135.5 94t-89 160t-25.5 232.5q0 133 25.5 230t89 162t134.5 94.5t163 29.5q90 0 161.5 -29.5t135 -94.5t89 -160t25.5 -232q0 -133 -25.5 -230.5t-97.5 -171.5zM727 815q-74 74 -184 74 q-109 0 -170.5 -61.5t-77.5 -142.5t-16 -181q0 -111 15 -185.5t77.5 -137t171.5 -62.5q111 0 172 61.5t76.5 138t15.5 185.5q0 106 -15.5 184t-64.5 127z" />
<glyph unicode="p" horiz-adv-x="1116" d="M862 76q-39 -39 -105.5 -63.5t-140.5 -24.5q-94 0 -158.5 26.5t-125.5 104.5v-570h-148v1459h148v-119q57 74 125.5 102.5t158.5 28.5q158 0 238 -80t105.5 -186.5t25.5 -249.5q0 -141 -25.5 -248.5t-97.5 -179.5zM586 889q-150 0 -202 -104.5t-52 -280.5 q0 -180 51 -282.5t203 -102.5q147 0 199.5 104.5t52.5 280.5q0 180 -51 282.5t-201 102.5z" />
<glyph unicode="q" horiz-adv-x="1116" d="M784 -451v570q-57 -74 -125.5 -102.5t-158.5 -28.5q-158 0 -238 79.5t-105.5 186t-25.5 250.5q0 141 25.5 248.5t81 163t122 80t140.5 24.5q94 0 160.5 -27.5t125.5 -103.5v119h146v-1459h-148zM532 889q-150 0 -201.5 -104.5t-51.5 -280.5q0 -180 51 -282.5t202 -102.5 q147 0 199.5 104.5t52.5 280.5q0 180 -51 282.5t-201 102.5z" />
<glyph unicode="r" horiz-adv-x="862" d="M748 815q-41 41 -79 57.5t-96 16.5q-109 0 -175 -77t-66 -194v-618h-148v1008h148v-123q41 61 117.5 98t164.5 37q78 0 132.5 -19.5t109.5 -74.5z" />
<glyph unicode="s" horiz-adv-x="1015" d="M502 -12q-131 0 -231.5 33.5t-182.5 111.5l98 98q57 -61 135 -88.5t179 -27.5q129 0 198.5 44t69.5 134q0 133 -168 147l-166 15q-145 0 -223 71.5t-78 198.5q0 137 102.5 216t268.5 79q229 0 362 -109l-96 -96q-104 80 -268 80q-111 0 -168.5 -43t-57.5 -123 q0 -70 41 -108.5t136 -38.5l161 -15q143 -12 220 -74.5t77 -197.5q0 -145 -110.5 -226t-298.5 -81z" />
<glyph unicode="t" horiz-adv-x="679" d="M467 0q-125 0 -191.5 76t-66.5 194v619h-127v112h127v316h147v-316h215v-112h-215v-615q0 -147 138 -147h77v-127h-104z" />
<glyph unicode="u" horiz-adv-x="1150" d="M821 0v113q-109 -125 -284 -125q-166 0 -264.5 97t-98.5 280v643h148v-621q0 -131 64.5 -199.5t180.5 -68.5q117 0 184.5 69.5t67.5 198.5v621h148v-1008h-146z" />
<glyph unicode="v" horiz-adv-x="915" d="M522 0h-131l-368 1008h159l275 -809l276 809h160z" />
<glyph unicode="w" horiz-adv-x="1482" d="M1143 0h-137l-265 782l-262 -782h-137l-319 1008h159l232 -809l264 809h127l266 -809l229 809h160z" />
<glyph unicode="x" horiz-adv-x="978" d="M733 0l-241 391l-246 -391h-178l342 514l-328 494h178l232 -373l227 373h178l-328 -494l342 -514h-178z" />
<glyph unicode="y" horiz-adv-x="915" d="M434 -244q-29 -80 -68.5 -117.5t-92 -54t-107.5 -16.5h-64v131h45q76 0 108 25.5t58 99.5l72 196l-362 988h159l277 -809l274 809h160z" />
<glyph unicode="z" horiz-adv-x="940" d="M102 0v127l562 750h-531v131h701v-125l-564 -752h564v-131h-732z" />
<glyph unicode="{" horiz-adv-x="724" d="M549 -152q-145 0 -206.5 61.5t-61.5 203.5v391q0 86 -37 123t-92 37h-54v131h54q29 0 51 9t50 36.5t28 113.5v392q0 84 12 124.5t61 90t195 49.5h76v-131h-47q-94 0 -122 -28t-28 -132v-385q0 -82 -33 -128t-96 -77q66 -31 97.5 -76t31.5 -129v-385q0 -104 27.5 -131.5 t122.5 -27.5h47v-132h-76z" />
<glyph unicode="|" horiz-adv-x="667" d="M260 -152v1762h148v-1762h-148z" />
<glyph unicode="}" horiz-adv-x="724" d="M573 664q-29 0 -51 -9.5t-50 -37t-28 -113.5v-391q0 -84 -12 -125t-61 -90.5t-195 -49.5h-78v132h49q59 0 81 5t45.5 28.5t23.5 125.5v385q0 82 32.5 128t96.5 77q-66 31 -97.5 76t-31.5 129v385q0 102 -22.5 124.5t-48 29t-79.5 6.5h-49v131h78q145 0 206.5 -61.5 t61.5 -202.5v-392q0 -86 37 -122.5t92 -36.5h52v-131h-52z" />
<glyph unicode="~" horiz-adv-x="1103" d="M739 430q-63 0 -103 15.5t-106.5 45t-97.5 41t-70 11.5q-49 0 -79.5 -15.5t-92.5 -76.5l-90 92q86 86 139.5 112.5t125.5 26.5q49 0 95 -15.5t112.5 -45t97 -41t69.5 -11.5q49 0 80 15.5t92 77.5l93 -93q-86 -86 -139.5 -112.5t-125.5 -26.5z" />
<glyph unicode="&#xa1;" horiz-adv-x="647" d="M203 836v172h176v-172h-176zM207 -451l20 1049h127l23 -1049h-170z" />
<glyph unicode="&#xa2;" horiz-adv-x="1019" d="M621 236v-236h-121v240q-172 25 -271.5 157.5t-99.5 352.5q0 217 99.5 351t271.5 159v198h121v-194q88 0 155.5 -36t141.5 -116l-101 -94q-100 113 -205 112v-761q104 0 205 112l101 -94q-139 -151 -297 -151zM508 1126q-100 -18 -150.5 -86.5t-66 -132t-15.5 -157.5 q0 -176 66 -267.5t166 -109.5v753z" />
<glyph unicode="&#xa3;" horiz-adv-x="1122" d="M225 0v676h-129v110h129v230q0 209 127 331.5t330 122.5t334 -131l-107 -104q-47 47 -96 71.5t-131 24.5q-143 0 -221 -86t-78 -250v-209h299v-110h-299v-537h633v-139h-791z" />
<glyph unicode="&#xa4;" horiz-adv-x="1351" d="M1098 39l-154 151q-57 -43 -124.5 -66.5t-143.5 -23.5q-74 0 -144.5 25t-125.5 65l-152 -151l-94 94l151 152q-43 57 -66.5 125.5t-23.5 144.5q0 74 24.5 144.5t65.5 125.5l-151 150l94 94l152 -149q117 88 270 88q152 0 268 -88l154 149l94 -94l-152 -150 q43 -57 66.5 -125.5t23.5 -144.5q0 -74 -24.5 -144.5t-65.5 -125.5l152 -152zM676 872q-131 0 -225.5 -92t-94.5 -225t93.5 -226t226.5 -93t225 92t92 227q0 133 -92 225t-225 92z" />
<glyph unicode="&#xa5;" horiz-adv-x="1052" d="M715 821h205v-110h-261l-53 -109v-106h314v-113h-314v-383h-157v383h-316v113h316v106l-54 109h-262v110h205l-322 637h168l344 -698l342 698h166z" />
<glyph unicode="&#xa7;" horiz-adv-x="1140" d="M750 184q92 -33 145 -108.5t53 -186.5q0 -158 -107.5 -255t-269.5 -97q-164 0 -275.5 86t-111.5 244h150q18 -195 237 -195q106 0 167 56.5t61 158.5q0 72 -48.5 128.5t-132.5 80.5l-159 45q-135 39 -208 136.5t-73 238.5q0 119 61.5 205t153.5 131q-94 43 -142 108.5 t-48 174.5q0 147 102.5 241t265.5 94q164 0 268.5 -87t104.5 -234h-147q0 96 -61.5 143t-164.5 47q-104 0 -162.5 -52t-58.5 -150q0 -76 45 -125t127 -72l160 -45q133 -39 207 -137.5t74 -237.5q0 -117 -61.5 -204t-151.5 -132zM748 707q-74 74 -177 73q-109 0 -176 -73.5 t-67 -188.5q0 -63 17 -107t67.5 -99.5t158.5 -55.5q109 0 158 54.5t66.5 100.5t17.5 107q0 66 -13 108t-52 81z" />
<glyph unicode="&#xa8;" horiz-adv-x="1024" d="M655 1233v182h148v-182h-148zM221 1233v182h148v-182h-148z" />
<glyph unicode="&#xa9;" horiz-adv-x="1804" d="M901 -12q-307 0 -524 217t-217 524t217 524t524 217t524 -217t217 -524t-217 -524t-524 -217zM901 1360q-258 0 -439 -185.5t-181 -445.5t181 -445.5t439 -185.5t440.5 184.5t182.5 446.5q0 258 -182.5 444.5t-440.5 186.5zM911 313q-174 0 -269 115t-95 301t95 302 t269 116q82 0 142.5 -25.5t126.5 -83.5l-74 -73q-90 80 -195 79q-131 0 -190 -86t-59 -229t58 -228t191 -85q57 0 100.5 16.5t94.5 61.5l74 -74q-119 -107 -269 -107z" />
<glyph unicode="&#xaa;" horiz-adv-x="919" d="M629 653v74q-86 -84 -228 -84q-86 0 -135 16.5t-100 69.5t-51 150q0 106 71.5 169.5t204.5 63.5h236v74q0 90 -45 131t-154 41q-78 0 -121 -19.5t-80 -70.5l-84 75q53 68 119 95.5t168 27.5q317 0 318 -270v-543h-119zM627 1020h-219q-172 0 -172 -137q0 -133 176 -133 q68 0 103.5 8t73.5 44t38 136v82z" />
<glyph unicode="&#xab;" horiz-adv-x="1134" d="M545 549l430 430v-184l-248 -246l248 -248v-182zM82 549l430 430v-184l-246 -246l246 -248v-182z" />
<glyph unicode="&#xac;" d="M827 211v281h-723v137h861v-418h-138z" />
<glyph unicode="&#xad;" horiz-adv-x="872" d="M156 483v138h561v-138h-561z" />
<glyph unicode="&#xae;" horiz-adv-x="1804" d="M901 -12q-307 0 -524 217t-217 524t217 524t524 217t524 -217t217 -524t-217 -524t-524 -217zM901 1362q-260 0 -441 -185.5t-181 -447.5q0 -260 182 -446.5t440 -186.5t441.5 185.5t183.5 447.5t-183.5 447.5t-441.5 185.5zM1081 324l-186 331h-123v-331h-113v813h277 q106 0 181 -71t75 -173q0 -84 -48 -141.5t-126 -81.5l194 -346h-131zM924 1036h-152v-284h152q68 0 110.5 38.5t42.5 102.5q0 61 -42.5 102t-110.5 41z" />
<glyph unicode="&#xaf;" horiz-adv-x="509" d="M-309 122v117h618v-117h-618z" />
<glyph unicode="&#xb0;" horiz-adv-x="948" d="M475 805q-139 0 -238.5 97t-99.5 239q0 139 98.5 237.5t239.5 98.5q139 0 237.5 -98.5t98.5 -237.5t-98.5 -237.5t-237.5 -98.5zM473 1358q-92 0 -151.5 -61.5t-59.5 -155.5q0 -90 61.5 -153.5t151.5 -63.5q92 0 151.5 61.5t59.5 155.5q0 90 -61.5 153.5t-151.5 63.5z " />
<glyph unicode="&#xb1;" d="M604 592v-363h-137v363h-361v137h361v358h137v-358h359v-137h-359zM106 0v137h857v-137h-857z" />
<glyph unicode="&#xb2;" d="M139 0v131l576 731q82 106 82 215q0 121 -66.5 191.5t-187.5 70.5q-111 0 -182.5 -64.5t-71.5 -199.5h-148q0 174 110.5 284.5t291.5 110.5q180 0 290.5 -106.5t110.5 -286.5q0 -86 -25.5 -148.5t-91.5 -146.5l-510 -651h627v-131h-805z" />
<glyph unicode="&#xb3;" d="M514 -14q-184 0 -306 98t-122 287h147q0 -127 83 -190.5t198 -63.5q121 0 201 75.5t80 206.5q0 137 -70 210t-217 73h-31v129h31q131 0 195.5 68.5t64.5 195.5t-71.5 196.5t-182.5 69.5q-113 0 -182.5 -65.5t-79.5 -177.5h-148q0 172 118 273.5t292 101.5 q178 0 289.5 -110t111.5 -286q0 -233 -196 -323q223 -84 223 -357q0 -195 -121 -303t-307 -108z" />
<glyph unicode="&#xb4;" horiz-adv-x="1024" d="M547 1217h-135l180 313h176z" />
<glyph unicode="&#xb5;" horiz-adv-x="1148" d="M817 0v113q-109 -125 -282 -125q-135 0 -218 75v-514h-147v1459h147v-621q0 -131 66 -199.5t182 -68.5q117 0 184.5 69.5t67.5 198.5v621h148v-1008h-148z" />
<glyph unicode="&#xb6;" horiz-adv-x="1234" d="M877 -451v1770h-240v-1770h-148v1119q-176 0 -289.5 117.5t-113.5 275.5q0 170 120 283.5t324 113.5h494v-1909h-147z" />
<glyph unicode="&#xb8;" horiz-adv-x="1024" d="M520 -442h-162l146 305h137z" />
<glyph unicode="&#xb9;" d="M528 0v1294l-272 -239v168l272 235h148v-1458h-148z" />
<glyph unicode="&#xba;" horiz-adv-x="931" d="M694 735q-43 -43 -100 -66.5t-129 -23.5t-129 23.5t-107.5 75t-71 128t-20.5 183.5q0 104 20.5 183t72 130t106.5 74.5t129 23.5q72 0 128 -23.5t107.5 -74.5t72 -130t20.5 -183t-21 -183.5t-78 -136.5zM608 1298q-57 57 -143 58q-86 0 -133 -47t-59.5 -110.5 t-12.5 -143.5q0 -88 11.5 -145.5t60.5 -106.5t133 -49q43 0 78 14t69.5 49t47 94.5t12.5 143.5q0 82 -12.5 143t-51.5 100z" />
<glyph unicode="&#xbb;" horiz-adv-x="1134" d="M623 119v182l245 248l-245 246v184l430 -430zM160 119v182l248 248l-248 246v184l430 -430z" />
<glyph unicode="&#xbf;" horiz-adv-x="1017" d="M379 836v172h174v-172h-174zM479 -463q-162 0 -273.5 105.5t-111.5 269.5q0 66 23.5 121t70.5 125l168 241q16 25 26.5 60t10.5 59v82h148v-84q0 -57 -15.5 -100t-50.5 -92l-166 -238q-37 -55 -52 -89t-15 -85q0 -102 67.5 -172t169.5 -70q106 0 171 71t65 171h147 q0 -158 -108.5 -266.5t-274.5 -108.5z" />
<glyph unicode="&#xc0;" horiz-adv-x="1251" d="M1061 0l-117 330h-637l-117 -330h-165l536 1458h131l535 -1458h-166zM629 1235l-275 -770h545zM583 1600l-221 313h176l180 -313h-135z" />
<glyph unicode="&#xc1;" horiz-adv-x="1251" d="M1061 0l-117 330h-637l-117 -330h-165l536 1458h131l535 -1458h-166zM629 1235l-275 -770h545zM653 1600h-135l180 313h176z" />
<glyph unicode="&#xc2;" horiz-adv-x="1251" d="M1061 0l-117 330h-637l-117 -330h-165l536 1458h131l535 -1458h-166zM629 1235l-275 -770h545zM802 1600l-184 213l-184 -213h-142l256 313h140l256 -313h-142z" />
<glyph unicode="&#xc3;" horiz-adv-x="1251" d="M1061 0l-117 330h-637l-117 -330h-165l536 1458h131l535 -1458h-166zM629 1235l-275 -770h545zM745 1628q-49 0 -79 12.5t-72 37t-60 32.5t-49 8t-53.5 -10t-67.5 -55l-76 73q61 61 106.5 83t88.5 22t70.5 -10.5t84 -45t105.5 -34.5q27 0 53.5 12t67.5 53l76 -73 q-61 -61 -107.5 -83t-87.5 -22z" />
<glyph unicode="&#xc4;" horiz-adv-x="1251" d="M1061 0l-117 330h-637l-117 -330h-165l536 1458h131l535 -1458h-166zM629 1235l-275 -770h545zM761 1616v182h148v-182h-148zM327 1616v182h148v-182h-148z" />
<glyph unicode="&#xc5;" horiz-adv-x="1251" d="M1061 0l-117 330h-637l-117 -330h-165l536 1458h131l535 -1458h-166zM629 1235l-275 -770h545zM618 1532q-98 0 -170 72t-72 172t71 171t171 71q98 0 170 -70t72 -172q0 -100 -70 -172t-172 -72zM618 1915q-59 0 -100 -39t-41 -100q0 -59 41 -100t100 -41t100 41t41 100 q0 57 -41 98t-100 41z" />
<glyph unicode="&#xc6;" horiz-adv-x="1888" d="M872 0v346h-505l-181 -346h-170l770 1458h990v-139h-750v-518h639v-139h-639v-523h750v-139h-904zM872 1319l-438 -838h438v838z" />
<glyph unicode="&#xc7;" horiz-adv-x="1304" d="M666 -12q-221 0 -344 122.5t-144.5 239.5t-21.5 379q0 217 12 347t144 262t354 132q199 0 334 -114.5t171 -319.5h-159q-31 137 -120 216t-226 79q-154 0 -237 -85t-100.5 -180t-17.5 -337q0 -240 17.5 -336t100.5 -181t237 -85q137 0 228 79t122 216h155 q-35 -203 -170.5 -318.5t-334.5 -115.5zM637 -442h-162l146 305h137z" />
<glyph unicode="&#xc8;" horiz-adv-x="1228" d="M211 0v1458h905v-139h-749v-514h639v-139h-639v-527h749v-139h-905zM606 1600l-221 313h176l180 -313h-135z" />
<glyph unicode="&#xc9;" horiz-adv-x="1228" d="M211 0v1458h905v-139h-749v-514h639v-139h-639v-527h749v-139h-905zM676 1600h-135l180 313h176z" />
<glyph unicode="&#xca;" horiz-adv-x="1228" d="M211 0v1458h905v-139h-749v-514h639v-139h-639v-527h749v-139h-905zM825 1600l-184 213l-184 -213h-142l256 313h140l256 -313h-142z" />
<glyph unicode="&#xcb;" horiz-adv-x="1228" d="M211 0v1458h905v-139h-749v-514h639v-139h-639v-527h749v-139h-905zM784 1616v182h148v-182h-148zM350 1616v182h148v-182h-148z" />
<glyph unicode="&#xcc;" horiz-adv-x="577" d="M211 0v1458h156v-1458h-156zM432 1600l-221 313h176l180 -313h-135z" />
<glyph unicode="&#xcd;" horiz-adv-x="577" d="M211 0v1458h156v-1458h-156zM346 1600h-135l180 313h176z" />
<glyph unicode="&#xce;" horiz-adv-x="577" d="M211 0v1458h156v-1458h-156zM721 1600l-184 213l-184 -213h-142l256 313h140l256 -313h-142z" />
<glyph unicode="&#xcf;" horiz-adv-x="577" d="M211 0v1458h156v-1458h-156zM645 1616v182h148v-182h-148zM211 1616v182h148v-182h-148z" />
<glyph unicode="&#xd1;" horiz-adv-x="1499" d="M1141 0l-774 1169v-1169h-156v1458h147l775 -1165v1165h155v-1458h-147zM877 1628q-49 0 -79 12.5t-72 37t-60 32.5t-49 8t-53.5 -10t-67.5 -55l-76 73q61 61 106.5 83t88.5 22t70.5 -10.5t84 -45t105.5 -34.5q27 0 53.5 12t67.5 53l76 -73q-61 -61 -107.5 -83t-87.5 -22 z" />
<glyph unicode="&#xd2;" horiz-adv-x="1331" d="M1038 139q-152 -152 -372 -151q-221 0 -344 122.5t-144.5 239.5t-21.5 379q0 217 12 347t144 262t354 132q221 0 344 -122.5t144.5 -239.5t21.5 -379q0 -217 -12.5 -347t-125.5 -243zM918 1227q-100 104 -252 104t-236 -87t-101.5 -180t-17.5 -335q0 -240 17.5 -335 t101.5 -181t236 -86t235.5 87t101 180t17.5 335q0 240 -17 335t-85 163zM631 1600l-221 313h176l180 -313h-135z" />
<glyph unicode="&#xd3;" horiz-adv-x="1331" d="M1038 139q-152 -152 -372 -151q-221 0 -344 122.5t-144.5 239.5t-21.5 379q0 217 12 347t144 262t354 132q221 0 344 -122.5t144.5 -239.5t21.5 -379q0 -217 -12.5 -347t-125.5 -243zM918 1227q-100 104 -252 104t-236 -87t-101.5 -180t-17.5 -335q0 -240 17.5 -335 t101.5 -181t236 -86t235.5 87t101 180t17.5 335q0 240 -17 335t-85 163zM701 1600h-135l180 313h176z" />
<glyph unicode="&#xd4;" horiz-adv-x="1331" d="M1038 139q-152 -152 -372 -151q-221 0 -344 122.5t-144.5 239.5t-21.5 379q0 217 12 347t144 262t354 132q221 0 344 -122.5t144.5 -239.5t21.5 -379q0 -217 -12.5 -347t-125.5 -243zM918 1227q-100 104 -252 104t-236 -87t-101.5 -180t-17.5 -335q0 -240 17.5 -335 t101.5 -181t236 -86t235.5 87t101 180t17.5 335q0 240 -17 335t-85 163zM850 1600l-184 213l-184 -213h-142l256 313h140l256 -313h-142z" />
<glyph unicode="&#xd5;" horiz-adv-x="1331" d="M1038 139q-152 -152 -372 -151q-221 0 -344 122.5t-144.5 239.5t-21.5 379q0 217 12 347t144 262t354 132q221 0 344 -122.5t144.5 -239.5t21.5 -379q0 -217 -12.5 -347t-125.5 -243zM918 1227q-100 104 -252 104t-236 -87t-101.5 -180t-17.5 -335q0 -240 17.5 -335 t101.5 -181t236 -86t235.5 87t101 180t17.5 335q0 240 -17 335t-85 163zM793 1628q-49 0 -79 12.5t-72 37t-60 32.5t-49 8t-53.5 -10t-67.5 -55l-76 73q61 61 106.5 83t88.5 22t70.5 -10.5t84 -45t105.5 -34.5q27 0 53.5 12t67.5 53l76 -73q-61 -61 -107.5 -83t-87.5 -22z " />
<glyph unicode="&#xd6;" horiz-adv-x="1331" d="M1038 139q-152 -152 -372 -151q-221 0 -344 122.5t-144.5 239.5t-21.5 379q0 217 12 347t144 262t354 132q221 0 344 -122.5t144.5 -239.5t21.5 -379q0 -217 -12.5 -347t-125.5 -243zM918 1227q-100 104 -252 104t-236 -87t-101.5 -180t-17.5 -335q0 -240 17.5 -335 t101.5 -181t236 -86t235.5 87t101 180t17.5 335q0 240 -17 335t-85 163zM809 1616v182h148v-182h-148zM375 1616v182h148v-182h-148z" />
<glyph unicode="&#xd8;" horiz-adv-x="1335" d="M1038 139q-152 -152 -372 -151q-143 0 -258 65l-68 -143h-133l102 213l-16 16q-94 94 -115.5 211t-21.5 379q0 217 12 347t144 262t354 132q143 0 256 -63l69 141h133l-102 -213l16 -16q94 -94 116 -211t22 -379q0 -217 -12.5 -347t-125.5 -243zM948 1190l-479 -1004 q92 -59 197 -59q152 0 234.5 86t100 181t17.5 335q0 217 -11.5 307.5t-58.5 153.5zM666 1331q-152 0 -236 -87t-101.5 -180t-17.5 -335q0 -365 72 -461l479 1004q-92 59 -196 59z" />
<glyph unicode="&#xd9;" horiz-adv-x="1396" d="M698 -12q-223 0 -365.5 138t-142.5 355v977h156v-964q0 -166 96.5 -266.5t255.5 -100.5q158 0 256.5 100.5t98.5 266.5v964h155v-977q0 -219 -143.5 -356t-366.5 -137zM663 1600l-221 313h176l180 -313h-135z" />
<glyph unicode="&#xda;" horiz-adv-x="1396" d="M698 -12q-223 0 -365.5 138t-142.5 355v977h156v-964q0 -166 96.5 -266.5t255.5 -100.5q158 0 256.5 100.5t98.5 266.5v964h155v-977q0 -219 -143.5 -356t-366.5 -137zM733 1600h-135l180 313h176z" />
<glyph unicode="&#xdb;" horiz-adv-x="1396" d="M698 -12q-223 0 -365.5 138t-142.5 355v977h156v-964q0 -166 96.5 -266.5t255.5 -100.5q158 0 256.5 100.5t98.5 266.5v964h155v-977q0 -219 -143.5 -356t-366.5 -137zM882 1600l-184 213l-184 -213h-142l256 313h140l256 -313h-142z" />
<glyph unicode="&#xdc;" horiz-adv-x="1396" d="M698 -12q-223 0 -365.5 138t-142.5 355v977h156v-964q0 -166 96.5 -266.5t255.5 -100.5q158 0 256.5 100.5t98.5 266.5v964h155v-977q0 -219 -143.5 -356t-366.5 -137zM841 1616v182h148v-182h-148zM407 1616v182h148v-182h-148z" />
<glyph unicode="&#xdd;" horiz-adv-x="1052" d="M594 1594h-135l180 313h176zM606 602v-602h-155v602l-435 856h168l344 -698l340 698h168z" />
<glyph unicode="&#xdf;" horiz-adv-x="1138" d="M911 74q-80 -74 -211 -74h-110v127h82q47 0 68.5 7t62.5 41t41 130v346q0 84 -43 127t-121 43h-90v123h74q80 0 130 50t50 136q0 94 -62.5 153.5t-193.5 59.5t-192.5 -73.5t-61.5 -202.5v-1067h-150v1073q0 190 111 295t301 105q174 0 284.5 -85t110.5 -255 q0 -82 -31.5 -141.5t-97.5 -102.5q72 -39 100.5 -93.5t28.5 -152.5v-354q0 -141 -80 -215z" />
<glyph unicode="&#xe0;" horiz-adv-x="1077" d="M756 0v96q-59 -59 -125 -83.5t-166 -24.5q-106 0 -171 20.5t-127.5 84t-62.5 192.5q0 135 90.5 212.5t258.5 77.5h303v97q0 113 -60.5 167t-197.5 54q-100 0 -153.5 -24.5t-100.5 -90.5l-101 92q66 86 147 118t210 32q403 0 403 -336v-684h-147zM756 465h-283 q-225 0 -225 -178q0 -172 231 -172q78 0 129 12t99.5 58t48.5 171v109zM481 1217l-221 313h176l180 -313h-135z" />
<glyph unicode="&#xe1;" horiz-adv-x="1077" d="M756 0v96q-59 -59 -125 -83.5t-166 -24.5q-106 0 -171 20.5t-127.5 84t-62.5 192.5q0 135 90.5 212.5t258.5 77.5h303v97q0 113 -60.5 167t-197.5 54q-100 0 -153.5 -24.5t-100.5 -90.5l-101 92q66 86 147 118t210 32q403 0 403 -336v-684h-147zM756 465h-283 q-225 0 -225 -178q0 -172 231 -172q78 0 129 12t99.5 58t48.5 171v109zM551 1217h-135l180 313h176z" />
<glyph unicode="&#xe2;" horiz-adv-x="1077" d="M756 0v96q-59 -59 -125 -83.5t-166 -24.5q-106 0 -171 20.5t-127.5 84t-62.5 192.5q0 135 90.5 212.5t258.5 77.5h303v97q0 113 -60.5 167t-197.5 54q-100 0 -153.5 -24.5t-100.5 -90.5l-101 92q66 86 147 118t210 32q403 0 403 -336v-684h-147zM756 465h-283 q-225 0 -225 -178q0 -172 231 -172q78 0 129 12t99.5 58t48.5 171v109zM700 1217l-184 213l-184 -213h-142l256 313h140l256 -313h-142z" />
<glyph unicode="&#xe3;" horiz-adv-x="1077" d="M756 0v96q-59 -59 -125 -83.5t-166 -24.5q-106 0 -171 20.5t-127.5 84t-62.5 192.5q0 135 90.5 212.5t258.5 77.5h303v97q0 113 -60.5 167t-197.5 54q-100 0 -153.5 -24.5t-100.5 -90.5l-101 92q66 86 147 118t210 32q403 0 403 -336v-684h-147zM756 465h-283 q-225 0 -225 -178q0 -172 231 -172q78 0 129 12t99.5 58t48.5 171v109zM643 1245q-49 0 -79 12.5t-72 37t-60 32.5t-49 8t-53.5 -10t-67.5 -55l-76 73q61 61 106.5 83t88.5 22t70.5 -10.5t84 -45t105.5 -34.5q27 0 53.5 12t67.5 53l76 -73q-61 -61 -107.5 -83t-87.5 -22z " />
<glyph unicode="&#xe4;" horiz-adv-x="1077" d="M756 0v96q-59 -59 -125 -83.5t-166 -24.5q-106 0 -171 20.5t-127.5 84t-62.5 192.5q0 135 90.5 212.5t258.5 77.5h303v97q0 113 -60.5 167t-197.5 54q-100 0 -153.5 -24.5t-100.5 -90.5l-101 92q66 86 147 118t210 32q403 0 403 -336v-684h-147zM756 465h-283 q-225 0 -225 -178q0 -172 231 -172q78 0 129 12t99.5 58t48.5 171v109zM659 1233v182h148v-182h-148zM225 1233v182h148v-182h-148z" />
<glyph unicode="&#xe5;" horiz-adv-x="1077" d="M756 0v96q-59 -59 -125 -83.5t-166 -24.5q-106 0 -171 20.5t-127.5 84t-62.5 192.5q0 135 90.5 212.5t258.5 77.5h303v97q0 113 -60.5 167t-197.5 54q-100 0 -153.5 -24.5t-100.5 -90.5l-101 92q66 86 147 118t210 32q403 0 403 -336v-684h-147zM756 465h-283 q-225 0 -225 -178q0 -172 231 -172q78 0 129 12t99.5 58t48.5 171v109zM516 1163q-98 0 -170 72t-72 172t71 171t171 71q98 0 170 -70t72 -172q0 -100 -70 -172t-172 -72zM516 1546q-59 0 -100 -39t-41 -100q0 -59 41 -100t100 -41t100 41t41 100q0 57 -41 98t-100 41z" />
<glyph unicode="&#xe6;" horiz-adv-x="1710" d="M901 465q0 -166 77 -257t222 -91q86 0 141.5 24.5t120.5 89.5l103 -88q-82 -82 -164 -118.5t-209 -36.5q-125 0 -214 42t-144 132q-68 -94 -153 -134t-216 -40q-106 0 -171 20.5t-127.5 84t-62.5 192.5q0 135 90.5 212.5t258.5 77.5h303v97q0 113 -60.5 167t-197.5 54 q-100 0 -153.5 -24.5t-100.5 -90.5l-101 92q66 86 147 118t210 32q270 0 354 -158q106 158 315 158q195 0 304.5 -130t109.5 -358v-67h-682zM1405 743q-29 70 -92.5 111t-143.5 41t-142 -41t-87 -98.5t-32 -90t-7 -90.5h535q0 61 -5.5 90t-25.5 78zM756 465h-283 q-225 0 -225 -178q0 -172 231 -172q78 0 129 12t99.5 58t48.5 171v109z" />
<glyph unicode="&#xe7;" horiz-adv-x="1011" d="M575 -12q-197 0 -321.5 134t-124.5 382q0 250 124 383t322 133q109 0 180.5 -32t151.5 -118l-100 -94q-57 63 -108.5 88t-123.5 25q-154 0 -226.5 -103.5t-72.5 -281.5q0 -96 14.5 -157.5t73 -144.5t211.5 -83q74 0 123.5 24.5t108.5 89.5l100 -96q-78 -84 -152 -116.5 t-180 -32.5zM520 -442h-162l146 305h137z" />
<glyph unicode="&#xe8;" horiz-adv-x="1085" d="M276 465q0 -166 77 -257t220 -91q86 0 143.5 25.5t121.5 88.5l100 -88q-82 -82 -163 -118.5t-206 -36.5q-207 0 -323.5 128t-116.5 388q0 244 109.5 380t304.5 136t304 -130t109 -358v-67h-680zM778 743q-29 70 -92 111t-143 41t-142.5 -41t-86 -95t-31 -93t-7.5 -91h533 q0 61 -5.5 90t-25.5 78zM514 1217l-221 313h176l180 -313h-135z" />
<glyph unicode="&#xe9;" horiz-adv-x="1085" d="M276 465q0 -166 77 -257t220 -91q86 0 143.5 25.5t121.5 88.5l100 -88q-82 -82 -163 -118.5t-206 -36.5q-207 0 -323.5 128t-116.5 388q0 244 109.5 380t304.5 136t304 -130t109 -358v-67h-680zM778 743q-29 70 -92 111t-143 41t-142.5 -41t-86 -95t-31 -93t-7.5 -91h533 q0 61 -5.5 90t-25.5 78zM584 1217h-135l180 313h176z" />
<glyph unicode="&#xea;" horiz-adv-x="1085" d="M276 465q0 -166 77 -257t220 -91q86 0 143.5 25.5t121.5 88.5l100 -88q-82 -82 -163 -118.5t-206 -36.5q-207 0 -323.5 128t-116.5 388q0 244 109.5 380t304.5 136t304 -130t109 -358v-67h-680zM778 743q-29 70 -92 111t-143 41t-142.5 -41t-86 -95t-31 -93t-7.5 -91h533 q0 61 -5.5 90t-25.5 78zM733 1217l-184 213l-184 -213h-142l256 313h140l256 -313h-142z" />
<glyph unicode="&#xeb;" horiz-adv-x="1085" d="M276 465q0 -166 77 -257t220 -91q86 0 143.5 25.5t121.5 88.5l100 -88q-82 -82 -163 -118.5t-206 -36.5q-207 0 -323.5 128t-116.5 388q0 244 109.5 380t304.5 136t304 -130t109 -358v-67h-680zM778 743q-29 70 -92 111t-143 41t-142.5 -41t-86 -95t-31 -93t-7.5 -91h533 q0 61 -5.5 90t-25.5 78zM692 1233v182h148v-182h-148zM258 1233v182h148v-182h-148z" />
<glyph unicode="&#xec;" horiz-adv-x="518" d="M184 0v1008h148v-1008h-148zM405 1217l-221 313h176l180 -313h-135z" />
<glyph unicode="&#xed;" horiz-adv-x="518" d="M184 0v1008h148v-1008h-148zM320 1217h-135l180 313h176z" />
<glyph unicode="&#xee;" horiz-adv-x="518" d="M184 0v1008h148v-1008h-148zM694 1217l-184 213l-184 -213h-142l256 313h140l256 -313h-142z" />
<glyph unicode="&#xef;" horiz-adv-x="518" d="M184 0v1008h148v-1008h-148zM618 1233v182h148v-182h-148zM184 1233v182h148v-182h-148z" />
<glyph unicode="&#xf1;" horiz-adv-x="1150" d="M829 0v621q0 131 -65.5 199.5t-181.5 68.5q-117 0 -183.5 -68.5t-66.5 -199.5v-621h-148v1008h148v-111q109 123 282 123q164 0 263.5 -98.5t99.5 -276.5v-645h-148zM711 1245q-49 0 -79 12.5t-72 37t-60 32.5t-49 8t-53.5 -10t-67.5 -55l-76 73q61 61 106.5 83t88.5 22 t70.5 -10.5t84 -45t105.5 -34.5q27 0 53.5 12t67.5 53l76 -73q-61 -61 -107.5 -83t-87.5 -22z" />
<glyph unicode="&#xf2;" horiz-adv-x="1085" d="M831 102q-55 -55 -125.5 -84.5t-162.5 -29.5q-90 0 -162 29.5t-135.5 94t-89 160t-25.5 232.5q0 133 25.5 230t89 162t134.5 94.5t163 29.5q90 0 161.5 -29.5t135 -94.5t89 -160t25.5 -232q0 -133 -25.5 -230.5t-97.5 -171.5zM727 815q-74 74 -184 74 q-109 0 -170.5 -61.5t-77.5 -142.5t-16 -181q0 -111 15 -185.5t77.5 -137t171.5 -62.5q111 0 172 61.5t76.5 138t15.5 185.5q0 106 -15.5 184t-64.5 127zM487 1217l-221 313h176l180 -313h-135z" />
<glyph unicode="&#xf3;" horiz-adv-x="1085" d="M831 102q-55 -55 -125.5 -84.5t-162.5 -29.5q-90 0 -162 29.5t-135.5 94t-89 160t-25.5 232.5q0 133 25.5 230t89 162t134.5 94.5t163 29.5q90 0 161.5 -29.5t135 -94.5t89 -160t25.5 -232q0 -133 -25.5 -230.5t-97.5 -171.5zM727 815q-74 74 -184 74 q-109 0 -170.5 -61.5t-77.5 -142.5t-16 -181q0 -111 15 -185.5t77.5 -137t171.5 -62.5q111 0 172 61.5t76.5 138t15.5 185.5q0 106 -15.5 184t-64.5 127zM578 1217h-135l180 313h176z" />
<glyph unicode="&#xf4;" horiz-adv-x="1085" d="M831 102q-55 -55 -125.5 -84.5t-162.5 -29.5q-90 0 -162 29.5t-135.5 94t-89 160t-25.5 232.5q0 133 25.5 230t89 162t134.5 94.5t163 29.5q90 0 161.5 -29.5t135 -94.5t89 -160t25.5 -232q0 -133 -25.5 -230.5t-97.5 -171.5zM727 815q-74 74 -184 74 q-109 0 -170.5 -61.5t-77.5 -142.5t-16 -181q0 -111 15 -185.5t77.5 -137t171.5 -62.5q111 0 172 61.5t76.5 138t15.5 185.5q0 106 -15.5 184t-64.5 127zM727 1217l-184 213l-184 -213h-142l256 313h140l256 -313h-142z" />
<glyph unicode="&#xf5;" horiz-adv-x="1085" d="M831 102q-55 -55 -125.5 -84.5t-162.5 -29.5q-90 0 -162 29.5t-135.5 94t-89 160t-25.5 232.5q0 133 25.5 230t89 162t134.5 94.5t163 29.5q90 0 161.5 -29.5t135 -94.5t89 -160t25.5 -232q0 -133 -25.5 -230.5t-97.5 -171.5zM727 815q-74 74 -184 74 q-109 0 -170.5 -61.5t-77.5 -142.5t-16 -181q0 -111 15 -185.5t77.5 -137t171.5 -62.5q111 0 172 61.5t76.5 138t15.5 185.5q0 106 -15.5 184t-64.5 127zM670 1245q-49 0 -79 12.5t-72 37t-60 32.5t-49 8t-53.5 -10t-67.5 -55l-76 73q61 61 106.5 83t88.5 22t70.5 -10.5 t84 -45t105.5 -34.5q27 0 53.5 12t67.5 53l76 -73q-61 -61 -107.5 -83t-87.5 -22z" />
<glyph unicode="&#xf6;" horiz-adv-x="1085" d="M831 102q-55 -55 -125.5 -84.5t-162.5 -29.5q-90 0 -162 29.5t-135.5 94t-89 160t-25.5 232.5q0 133 25.5 230t89 162t134.5 94.5t163 29.5q90 0 161.5 -29.5t135 -94.5t89 -160t25.5 -232q0 -133 -25.5 -230.5t-97.5 -171.5zM727 815q-74 74 -184 74 q-109 0 -170.5 -61.5t-77.5 -142.5t-16 -181q0 -111 15 -185.5t77.5 -137t171.5 -62.5q111 0 172 61.5t76.5 138t15.5 185.5q0 106 -15.5 184t-64.5 127zM686 1233v182h148v-182h-148zM252 1233v182h148v-182h-148z" />
<glyph unicode="&#xf7;" d="M446 827v177h177v-177h-177zM104 483v138h861v-138h-861zM446 100v176h177v-176h-177z" />
<glyph unicode="&#xf8;" horiz-adv-x="1085" d="M831 102q-55 -55 -125.5 -84.5t-162.5 -29.5q-63 0 -115.5 14t-99.5 41l-78 -133h-117l117 196q-70 72 -94.5 168.5t-24.5 229.5t25.5 230t89 162t134.5 94.5t163 29.5q63 0 115.5 -14.5t99.5 -40.5l80 133h114l-116 -197q70 -72 94 -168t24 -229t-25.5 -230.5 t-97.5 -171.5zM758 776l-363 -612q63 -45 148 -45q111 0 172 61.5t76.5 138t15.5 185.5q0 98 -8 158.5t-41 113.5zM543 889q-109 0 -170.5 -61.5t-77.5 -142.5t-16 -181q0 -90 10 -155.5t41 -117.5l360 615q-61 43 -147 43z" />
<glyph unicode="&#xf9;" horiz-adv-x="1153" d="M821 0v113q-109 -125 -284 -125q-166 0 -264.5 97t-98.5 280v643h148v-621q0 -131 64.5 -199.5t180.5 -68.5q117 0 184.5 69.5t67.5 198.5v621h148v-1008h-146zM534 1217l-221 313h176l180 -313h-135z" />
<glyph unicode="&#xfa;" horiz-adv-x="1153" d="M821 0v113q-109 -125 -284 -125q-166 0 -264.5 97t-98.5 280v643h148v-621q0 -131 64.5 -199.5t180.5 -68.5q117 0 184.5 69.5t67.5 198.5v621h148v-1008h-146zM604 1217h-135l180 313h176z" />
<glyph unicode="&#xfb;" horiz-adv-x="1153" d="M821 0v113q-109 -125 -284 -125q-166 0 -264.5 97t-98.5 280v643h148v-621q0 -131 64.5 -199.5t180.5 -68.5q117 0 184.5 69.5t67.5 198.5v621h148v-1008h-146zM753 1217l-184 213l-184 -213h-142l256 313h140l256 -313h-142z" />
<glyph unicode="&#xfc;" horiz-adv-x="1153" d="M821 0v113q-109 -125 -284 -125q-166 0 -264.5 97t-98.5 280v643h148v-621q0 -131 64.5 -199.5t180.5 -68.5q117 0 184.5 69.5t67.5 198.5v621h148v-1008h-146zM712 1233v182h148v-182h-148zM278 1233v182h148v-182h-148z" />
<glyph unicode="&#xfd;" horiz-adv-x="915" d="M527 1143h-135l180 313h176zM434 -244q-29 -80 -68.5 -117.5t-92 -54t-107.5 -16.5h-64v131h45q76 0 108 25.5t58 99.5l72 196l-362 988h159l277 -809l274 809h160z" />
<glyph unicode="&#xff;" horiz-adv-x="913" d="M434 -244q-29 -80 -68.5 -117.5t-92 -54t-107.5 -16.5h-64v131h45q76 0 108 25.5t58 99.5l72 196l-362 988h159l277 -809l274 809h160zM600 1233v182h148v-182h-148zM166 1233v182h148v-182h-148z" />
<glyph unicode="&#x131;" horiz-adv-x="518" d="M184 0v1008h148v-1008h-148z" />
<glyph unicode="&#x152;" horiz-adv-x="2025" d="M1018 0v152q-66 -80 -159 -122t-195 -42q-219 0 -341 121.5t-144.5 238.5t-22.5 381q0 221 12 349t144 260t352 132q221 0 354 -163v151h889v-137h-733l2 -520h622v-131h-622l-2 -533h737v-137h-893zM918 1227q-100 104 -252 104t-236 -87t-101.5 -180t-17.5 -335 q0 -240 17.5 -335t101.5 -181t236 -86t234.5 86t100 181t17.5 335q0 248 -16 338t-84 160z" />
<glyph unicode="&#x153;" horiz-adv-x="1763" d="M954 465q0 -166 77 -257t220 -91q86 0 143.5 25.5t121.5 88.5l100 -88q-82 -82 -163 -118.5t-206 -36.5q-254 0 -362 194q-47 -92 -137.5 -143t-204.5 -51q-90 0 -162 29.5t-135.5 94t-89 160t-25.5 232.5q0 133 25.5 230t89 162t134.5 94.5t163 29.5q113 0 205 -51 t139 -144q104 195 334 195q195 0 304 -130t109 -358v-67h-680zM1456 743q-29 70 -92.5 111t-142.5 41q-80 0 -142.5 -41t-86 -95t-31 -93t-7.5 -91h535q0 63 -5 87t-28 81zM727 815q-74 74 -184 74q-109 0 -170.5 -61.5t-77.5 -142.5t-16 -181q0 -111 15 -185.5t77.5 -137 t171.5 -62.5q111 0 172 61.5t76.5 138t15.5 185.5q0 106 -15.5 184t-64.5 127z" />
<glyph unicode="&#x178;" horiz-adv-x="1054" d="M606 602v-602h-155v602l-435 856h168l344 -698l340 698h168zM669 1616v182h148v-182h-148zM235 1616v182h148v-182h-148z" />
<glyph unicode="&#x2c6;" horiz-adv-x="1099" d="M801 846l-250 467l-252 -467h-152l336 624h135l334 -624h-151z" />
<glyph unicode="&#x2c9;" horiz-adv-x="1024" d="M203 1257v117h618v-117h-618z" />
<glyph unicode="&#x2da;" horiz-adv-x="1024" d="M512 1163q-98 0 -170 72t-72 172t71 171t171 71q98 0 170 -70t72 -172q0 -100 -70 -172t-172 -72zM512 1546q-59 0 -100 -39t-41 -100q0 -59 41 -100t100 -41t100 41t41 100q0 57 -41 98t-100 41z" />
<glyph unicode="&#x2dc;" horiz-adv-x="509" d="M131 123q-49 0 -79 12.5t-72 37t-60 32.5t-49 8t-53.5 -10t-67.5 -55l-76 73q61 61 106.5 83t88.5 22t70.5 -10.5t84 -45t105.5 -34.5q27 0 53.5 12t67.5 53l76 -73q-61 -61 -107.5 -83t-87.5 -22z" />
<glyph unicode="&#x302;" horiz-adv-x="1024" d="M696 1217l-184 213l-184 -213h-142l256 313h140l256 -313h-142z" />
<glyph unicode="&#x303;" horiz-adv-x="1024" d="M639 1245q-49 0 -79 12.5t-72 37t-60 32.5t-49 8t-53.5 -10t-67.5 -55l-76 73q61 61 106.5 83t88.5 22t70.5 -10.5t84 -45t105.5 -34.5q27 0 53.5 12t67.5 53l76 -73q-61 -61 -107.5 -83t-87.5 -22z" />
<glyph unicode="&#x2000;" horiz-adv-x="1007" />
<glyph unicode="&#x2001;" horiz-adv-x="2017" />
<glyph unicode="&#x2002;" horiz-adv-x="1007" />
<glyph unicode="&#x2003;" horiz-adv-x="2017" />
<glyph unicode="&#x2004;" horiz-adv-x="671" />
<glyph unicode="&#x2005;" horiz-adv-x="503" />
<glyph unicode="&#x2006;" horiz-adv-x="335" />
<glyph unicode="&#x2007;" horiz-adv-x="335" />
<glyph unicode="&#x2008;" horiz-adv-x="251" />
<glyph unicode="&#x2009;" horiz-adv-x="403" />
<glyph unicode="&#x200a;" horiz-adv-x="110" />
<glyph unicode="&#x2010;" horiz-adv-x="872" d="M156 483v138h561v-138h-561z" />
<glyph unicode="&#x2011;" horiz-adv-x="872" d="M156 483v138h561v-138h-561z" />
<glyph unicode="&#x2012;" horiz-adv-x="872" d="M156 483v138h561v-138h-561z" />
<glyph unicode="&#x2013;" d="M106 483v138h857v-138h-857z" />
<glyph unicode="&#x2014;" horiz-adv-x="1871" d="M156 483v140h1560v-140h-1560z" />
<glyph unicode="&#x2018;" horiz-adv-x="538" d="M180 1286v172l178 162v-334h-178z" />
<glyph unicode="&#x2019;" horiz-adv-x="538" d="M180 1124v334h178v-172z" />
<glyph unicode="&#x201a;" horiz-adv-x="538" d="M180 -162v334h178v-172z" />
<glyph unicode="&#x201c;" horiz-adv-x="888" d="M528 1286v172l181 162v-334h-181zM180 1286v172l178 162v-334h-178z" />
<glyph unicode="&#x201d;" horiz-adv-x="888" d="M528 1124v334h181v-172zM180 1124v334h178v-172z" />
<glyph unicode="&#x201e;" horiz-adv-x="888" d="M528 -162v334h181v-172zM180 -162v334h178v-172z" />
<glyph unicode="&#x2022;" horiz-adv-x="1089" d="M545 350q-139 0 -236.5 97.5t-97.5 236.5t97.5 236.5t236.5 97.5t236.5 -97.5t97.5 -236.5t-97.5 -236.5t-236.5 -97.5z" />
<glyph unicode="&#x2026;" horiz-adv-x="1550" d="M1182 0v188h188v-188h-188zM680 0v188h188v-188h-188zM180 0v188h189v-188h-189z" />
<glyph unicode="&#x202f;" horiz-adv-x="403" />
<glyph unicode="&#x2039;" horiz-adv-x="671" d="M82 549l430 430v-184l-246 -246l246 -248v-182z" />
<glyph unicode="&#x203a;" horiz-adv-x="671" d="M160 119v182l248 248l-248 246v184l430 -430z" />
<glyph unicode="&#x205f;" horiz-adv-x="503" />
<glyph unicode="&#x2122;" horiz-adv-x="1718" d="M1483 584v630l-209 -413h-115l-209 413v-630h-119v874h119l267 -530l266 530h116v-874h-116zM434 1350v-766h-119v766h-241v108h604v-108h-244z" />
<glyph unicode="&#xe000;" horiz-adv-x="1010" d="M0 1010h1010v-1010h-1010v1010z" />
<glyph unicode="&#xfb01;" horiz-adv-x="1161" d="M819 1294v166h166v-166h-166zM827 0v1008h148v-1008h-148zM365 889v-889h-148v889h-129v112h129v191q0 117 66.5 193.5t189.5 76.5h107v-127h-80q-135 0 -135 -147v-187h215v-112h-215z" />
<glyph unicode="&#xfb02;" horiz-adv-x="1251" d="M1079 0q-127 0 -191.5 72.5t-64.5 195.5v1190h148v-1184q0 -76 29.5 -111.5t105.5 -35.5h80v-127h-107zM365 889v-889h-148v889h-129v112h129v191q0 117 66.5 193.5t189.5 76.5h107v-127h-80q-135 0 -135 -147v-187h215v-112h-215z" />
<glyph unicode="&#xfb03;" horiz-adv-x="1804" d="M1462 1294v166h166v-166h-166zM1470 0v1008h148v-1008h-148zM1008 889v-889h-148v889h-129v112h129v191q0 117 66.5 193.5t189.5 76.5h107v-127h-80q-135 0 -135 -147v-187h215v-112h-215zM365 889v-889h-148v889h-129v112h129v191q0 117 66.5 193.5t189.5 76.5h107v-127 h-80q-135 0 -135 -147v-187h215v-112h-215z" />
<glyph unicode="&#xfb04;" horiz-adv-x="1894" d="M1722 0q-127 0 -191.5 72.5t-64.5 195.5v1190h148v-1184q0 -76 29.5 -111.5t105.5 -35.5h80v-127h-107zM1008 889v-889h-148v889h-129v112h129v191q0 117 66.5 193.5t189.5 76.5h107v-127h-80q-135 0 -135 -147v-187h215v-112h-215zM365 889v-889h-148v889h-129v112h129 v191q0 117 66.5 193.5t189.5 76.5h107v-127h-80q-135 0 -135 -147v-187h215v-112h-215z" />
</font>
</defs>
</svg>
